<?xml version="1.0" encoding="utf-8"?>
<!-- Generator: Adobe Illustrator 24.2.3, SVG Export Plug-In . SVG Version: 6.00 Build 0)  -->
<svg version="1.1" id="Layer_1" xmlns="http://www.w3.org/2000/svg" xmlns:xlink="http://www.w3.org/1999/xlink" x="0px" y="0px"
	 viewBox="0 0 250 100" style="enable-background:new 0 0 250 100;" xml:space="preserve">
<style type="text/css">
	.st0{fill:#FFFFFF;stroke:#004023;stroke-width:1.9316;stroke-linecap:round;stroke-miterlimit:10;}
	.st1{fill:none;stroke:#004023;stroke-width:1.2073;stroke-linecap:round;stroke-miterlimit:10;}
	.st2{fill:none;stroke:#004023;stroke-width:1.0463;stroke-linecap:round;stroke-linejoin:round;}
	.st3{fill:#004023;}
	.st4{fill:#FFFFFF;stroke:#004023;stroke-width:2.1425;stroke-linecap:round;stroke-miterlimit:10;}
	.st5{fill:none;stroke:#004023;stroke-width:1.3391;stroke-linecap:round;stroke-miterlimit:10;}
	.st6{fill:none;stroke:#004023;stroke-width:1.1605;stroke-linecap:round;stroke-linejoin:round;}
	.st7{fill:#FFFFFF;stroke:#004023;stroke-width:2.4;stroke-linecap:round;stroke-miterlimit:10;}
	.st8{fill:none;stroke:#004023;stroke-width:1.5;stroke-linecap:round;stroke-miterlimit:10;}
	.st9{fill:none;stroke:#004023;stroke-width:1.3;stroke-linecap:round;stroke-linejoin:round;}
	.st10{fill:none;stroke:#004023;stroke-width:1.6;stroke-linejoin:round;stroke-miterlimit:10;}
	.st11{fill:none;stroke:#004023;stroke-width:1.0836;stroke-miterlimit:10;}
	.st12{fill:none;stroke:#004023;stroke-width:1.5;stroke-miterlimit:10;}
	.st13{fill:#FFFFFF;stroke:#004023;stroke-miterlimit:10;}
	.st14{fill:none;stroke:#004023;stroke-miterlimit:10;}
	.st15{fill:none;stroke:#FFFFFF;stroke-width:4;stroke-linecap:round;stroke-linejoin:round;stroke-miterlimit:10;}
</style>
<g>
	<g>
		<g>
			<g>
				<path class="st0" d="M97.71,7.97c0,0,7.23-1.4,7.45-0.78c0.24,0.66-4.35,3.68-5.04,4.06l-4.04,0.23l-0.84-0.17L97.71,7.97z"/>
				<path class="st0" d="M84.52,21.06c0,0,0.52-2.72,3.27-6.42c2.75-3.69,3.76-4.81,6.38-7.11c2.45-2.15,4.8-2.05,4.8-2.05
					s-1,2.42-2.04,3.66c-0.48,0.57-2.36,2.15-3.39,3.03c-0.11,0.09,0,0.26,0.13,0.2c0.94-0.4,2.59-1.23,4.51-1.11
					c2.42,0.15,3.75,0.8,4.24,1.03c0,0-3.19,2.5-7.15,3.65C91.01,17.18,87.25,18.19,84.52,21.06z"/>
				<path class="st1" d="M95.47,11.12c0,0,3.56-1.63,4.47-1.94"/>
				<path class="st1" d="M95.93,13.67c0,0-2.97,1.17-5.48,0.73c0,0,1.46-3.4,4.51-5.58"/>
			</g>
			<g>
				<path class="st0" d="M82.13,20.22c0,0,5.93-4.37,6.39-3.91c0.5,0.49-2.34,5.2-2.8,5.84l-3.55,1.95l-0.83,0.21L82.13,20.22z"/>
				<path class="st0" d="M75.86,37.72c0,0-0.7-2.68,0.19-7.2s1.32-5.96,2.7-9.16c1.28-2.99,3.45-3.92,3.45-3.92s0.14,2.61-0.26,4.18
					c-0.18,0.72-1.21,2.96-1.75,4.19c-0.06,0.13,0.11,0.23,0.2,0.13c0.67-0.76,1.81-2.22,3.59-2.94c2.25-0.9,3.73-0.89,4.27-0.9
					c0,0-1.8,3.63-4.89,6.37C80.04,31.42,77.09,33.95,75.86,37.72z"/>
				<path class="st1" d="M81.46,24.03c0,0,2.51-3.01,3.2-3.68"/>
				<path class="st1" d="M82.98,26.14c0,0-2.18,2.34-4.63,3.02c0,0-0.14-3.7,1.67-6.98"/>
				<g>
					<g>
						<path class="st2" d="M83.76,18.88c0,0,0.7-3.4,0.93-3.76"/>
						<g>
							<path class="st3" d="M86.06,15.99c0.48-0.75,0.26-1.75-0.49-2.23c-0.75-0.48-1.75-0.26-2.23,0.49
								c-0.48,0.75-0.26,1.75,0.49,2.23C84.58,16.96,85.57,16.74,86.06,15.99z"/>
						</g>
					</g>
				</g>
				<g>
					<g>
						<path class="st2" d="M86.62,20.96c1.15-0.23,3.21-0.44,3.71-0.63"/>
						<g>
							<path class="st3" d="M90.9,21.84c0.83-0.32,1.25-1.25,0.93-2.08c-0.32-0.83-1.25-1.25-2.08-0.93
								c-0.83,0.32-1.25,1.25-0.93,2.08C89.14,21.74,90.07,22.16,90.9,21.84z"/>
						</g>
					</g>
				</g>
			</g>
			<g>
				<path class="st0" d="M73.95,38.05c0,0,3.3-6.59,3.92-6.39c0.67,0.21,0.27,5.69,0.15,6.47l-2.28,3.34l-0.64,0.56L73.95,38.05z"/>
				<path class="st0" d="M76.3,56.49c0,0-1.84-2.07-3.1-6.5s-1.52-5.91-1.75-9.39c-0.21-3.25,1.3-5.05,1.3-5.05s1.31,2.26,1.67,3.85
					c0.16,0.72,0.27,3.18,0.34,4.53c0.01,0.14,0.2,0.16,0.24,0.02c0.25-0.98,0.6-2.8,1.87-4.25c1.6-1.83,2.92-2.49,3.4-2.74
					c0,0,0.04,4.06-1.47,7.9C77.17,48.98,75.68,52.58,76.3,56.49z"/>
				<path class="st1" d="M75.08,41.75c0,0,0.87-3.82,1.19-4.73"/>
				<path class="st1" d="M77.39,42.94c0,0-0.88,3.07-2.76,4.79c0,0-1.81-3.23-1.68-6.98"/>
				<g>
					<g>
						<path class="st2" d="M74.79,36.12c0,0-0.92-3.35-0.87-3.78"/>
						<g>
							<path class="st3" d="M75.53,32.5c0.09-0.89-0.56-1.68-1.44-1.77s-1.68,0.56-1.77,1.44c-0.09,0.89,0.56,1.68,1.44,1.77
								C74.65,34.04,75.44,33.39,75.53,32.5z"/>
						</g>
					</g>
				</g>
				<g>
					<g>
						<path class="st2" d="M78.28,36.68c0.92-0.73,2.66-1.85,3.02-2.25"/>
						<g>
							<path class="st3" d="M82.5,35.52c0.6-0.66,0.55-1.68-0.11-2.28s-1.68-0.55-2.28,0.11c-0.6,0.66-0.55,1.68,0.11,2.28
								S81.9,36.18,82.5,35.52z"/>
						</g>
					</g>
				</g>
			</g>
			<g>
				<path class="st4" d="M73.34,55.52c0,0,0.88-8.12,1.6-8.16c0.78-0.04,2.49,5.81,2.67,6.67l-1.07,4.36l-0.45,0.83L73.34,55.52z"/>
				<path class="st4" d="M82.92,73.77c0,0-2.72-1.44-5.74-5.56c-3.02-4.12-3.87-5.56-5.46-9.08c-1.48-3.29-0.61-5.75-0.61-5.75
					s2.24,1.85,3.22,3.35c0.45,0.69,1.51,3.21,2.11,4.58c0.06,0.14,0.27,0.09,0.26-0.07c-0.12-1.12-0.46-3.15,0.3-5.14
					c0.95-2.52,2.07-3.71,2.48-4.16c0,0,1.61,4.2,1.53,8.77C80.91,65.63,80.77,69.94,82.92,73.77z"/>
				<path class="st5" d="M75.94,58.92c0,0-0.57-4.3-0.6-5.37"/>
				<path class="st5" d="M78.81,59.26c0,0,0.28,3.53-1.01,6.05c0,0-3.13-2.66-4.45-6.6"/>
				<g>
					<g>
						<path class="st6" d="M73.47,53.18c0,0-2.25-3.13-2.37-3.59"/>
						<g>
							<path class="st3" d="M72.83,49.14c-0.25-0.96-1.23-1.53-2.19-1.28s-1.53,1.23-1.28,2.19c0.25,0.96,1.23,1.53,2.19,1.28
								C72.51,51.07,73.08,50.09,72.83,49.14z"/>
						</g>
					</g>
				</g>
				<g>
					<g>
						<path class="st6" d="M77.31,52.41c0.67-1.11,2.05-2.95,2.27-3.5"/>
						<g>
							<path class="st3" d="M81.24,49.57c0.37-0.92-0.08-1.96-1-2.32c-0.92-0.37-1.96,0.08-2.32,1c-0.37,0.92,0.08,1.96,1,2.32
								C79.83,50.94,80.87,50.49,81.24,49.57z"/>
						</g>
					</g>
				</g>
			</g>
			<g>
				<path class="st4" d="M80.39,72.67c0,0-2.62-7.74-1.98-8.07c0.69-0.36,4.7,4.23,5.22,4.93l0.86,4.4l-0.06,0.94L80.39,72.67z"/>
				<path class="st4" d="M96.76,85.2c0,0-3.07-0.16-7.54-2.63c-4.47-2.47-5.85-3.41-8.77-5.94c-2.73-2.37-2.97-4.96-2.97-4.96
					s2.81,0.73,4.33,1.69c0.7,0.44,2.72,2.27,3.84,3.27c0.12,0.1,0.28-0.04,0.21-0.17c-0.58-0.97-1.74-2.66-1.9-4.79
					c-0.2-2.68,0.31-4.24,0.49-4.82c0,0,3.23,3.13,5.08,7.31C91.52,78.66,93.2,82.64,96.76,85.2z"/>
				<path class="st5" d="M84.19,74.67c0,0-2.33-3.66-2.81-4.62"/>
				<path class="st5" d="M86.93,73.77c0,0,1.74,3.09,1.63,5.91c0,0-3.96-1.1-6.81-4.12"/>
				<g>
					<g>
						<path class="st6" d="M79.52,70.5c0,0-3.36-1.89-3.66-2.26"/>
						<g>
							<path class="st3" d="M77.24,67.1c-0.63-0.76-1.76-0.87-2.52-0.24s-0.87,1.76-0.24,2.52c0.63,0.76,1.76,0.87,2.52,0.24
								S77.87,67.86,77.24,67.1z"/>
						</g>
					</g>
				</g>
				<g>
					<g>
						<path class="st6" d="M82.69,68.19c0.14-1.29,0.61-3.54,0.58-4.13"/>
						<g>
							<path class="st3" d="M85.06,63.96c-0.05-0.99-0.9-1.74-1.88-1.69c-0.99,0.05-1.74,0.9-1.69,1.88
								c0.05,0.99,0.9,1.74,1.88,1.69C84.35,65.79,85.11,64.94,85.06,63.96z"/>
						</g>
					</g>
				</g>
			</g>
			<g>
				<path class="st7" d="M94.13,87.23c0,0-6.34-6.6-5.85-7.25c0.53-0.69,6.78,2.05,7.64,2.51l2.97,4.06l0.39,0.99L94.13,87.23z"/>
				<path class="st7" d="M116.69,92.14c0,0-3.19,1.3-8.9,0.92c-5.71-0.37-7.56-0.67-11.72-1.85c-3.89-1.1-5.38-3.62-5.38-3.62
					s3.19-0.59,5.2-0.35c0.92,0.11,3.84,1.01,5.44,1.49c0.17,0.05,0.27-0.17,0.13-0.27c-1.05-0.71-3.03-1.87-4.2-3.96
					c-1.48-2.63-1.7-4.45-1.79-5.12c0,0,4.77,1.64,8.63,5C108.26,88,111.86,91.24,116.69,92.14z"/>
				<path class="st8" d="M98.93,87.44c0,0-4.11-2.61-5.04-3.35"/>
				<path class="st8" d="M101.28,85.23c0,0,3.23,2.31,4.46,5.22c0,0-4.53,0.77-8.87-0.94"/>
				<g>
					<g>
						<path class="st9" d="M92.22,85.43c0,0-4.3-0.32-4.79-0.55"/>
						<g>
							<path class="st3" d="M88.29,83.07c-1-0.47-2.2-0.04-2.67,0.96c-0.47,1-0.04,2.2,0.96,2.67c1,0.47,2.2,0.04,2.67-0.96
								C89.72,84.74,89.29,83.55,88.29,83.07z"/>
						</g>
					</g>
				</g>
				<g>
					<g>
						<path class="st9" d="M94.33,81.58c-0.47-1.38-1.06-3.88-1.38-4.47"/>
						<g>
							<path class="st3" d="M94.72,76.17c-0.52-0.97-1.74-1.34-2.71-0.82c-0.97,0.52-1.34,1.74-0.82,2.71
								c0.52,0.97,1.74,1.34,2.71,0.82S95.24,77.14,94.72,76.17z"/>
						</g>
					</g>
				</g>
			</g>
			<polygon class="st7" points="122.13,92.93 127.54,95.17 126.5,96.93 119.55,94.09 			"/>
			<path class="st7" d="M128.72,95.37l0.15,0.05c0.48,0.15,0.6,0.77,0.21,1.09l0,0l-1.55,0.8l-1.04-0.39l1.04-1.76l0.96,0.15
				C128.57,95.33,128.65,95.35,128.72,95.37z"/>
		</g>
		<g>
			<g>
				<path class="st0" d="M139.11,7.97c0,0-7.23-1.4-7.45-0.78c-0.24,0.66,4.35,3.68,5.04,4.06l4.04,0.23l0.84-0.17L139.11,7.97z"/>
				<path class="st0" d="M152.3,21.06c0,0-0.52-2.72-3.27-6.42c-2.75-3.69-3.76-4.81-6.38-7.11c-2.45-2.15-4.8-2.05-4.8-2.05
					s1,2.42,2.04,3.66c0.48,0.57,2.36,2.15,3.39,3.03c0.11,0.09,0,0.26-0.13,0.2c-0.94-0.4-2.59-1.23-4.51-1.11
					c-2.42,0.15-3.75,0.8-4.24,1.03c0,0,3.19,2.5,7.15,3.65C145.82,17.18,149.57,18.19,152.3,21.06z"/>
				<path class="st1" d="M141.35,11.12c0,0-3.56-1.63-4.47-1.94"/>
				<path class="st1" d="M140.89,13.67c0,0,2.97,1.17,5.48,0.73c0,0-1.46-3.4-4.51-5.58"/>
			</g>
			<g>
				<path class="st0" d="M154.69,20.22c0,0-5.93-4.37-6.39-3.91c-0.5,0.49,2.34,5.2,2.8,5.84l3.55,1.95l0.83,0.21L154.69,20.22z"/>
				<path class="st0" d="M160.96,37.72c0,0,0.7-2.68-0.19-7.2c-0.89-4.52-1.32-5.96-2.7-9.16c-1.28-2.99-3.45-3.92-3.45-3.92
					s-0.14,2.61,0.26,4.18c0.18,0.72,1.21,2.96,1.75,4.19c0.06,0.13-0.11,0.23-0.2,0.13c-0.67-0.76-1.81-2.22-3.59-2.94
					c-2.25-0.9-3.73-0.89-4.27-0.9c0,0,1.8,3.63,4.89,6.37C156.78,31.42,159.73,33.95,160.96,37.72z"/>
				<path class="st1" d="M155.36,24.03c0,0-2.51-3.01-3.2-3.68"/>
				<path class="st1" d="M153.84,26.14c0,0,2.18,2.34,4.63,3.02c0,0,0.14-3.7-1.67-6.98"/>
				<g>
					<g>
						<path class="st2" d="M153.06,18.88c0,0-0.7-3.4-0.93-3.76"/>
						<g>
							<path class="st3" d="M153.48,14.25c-0.48-0.75-1.48-0.97-2.23-0.49c-0.75,0.48-0.97,1.48-0.49,2.23
								c0.48,0.75,1.48,0.97,2.23,0.49C153.74,15.99,153.96,15,153.48,14.25z"/>
						</g>
					</g>
				</g>
				<g>
					<g>
						<path class="st2" d="M150.2,20.96c-1.15-0.23-3.21-0.44-3.71-0.63"/>
						<g>
							<path class="st3" d="M147.07,18.82c-0.83-0.32-1.76,0.1-2.08,0.93c-0.32,0.83,0.1,1.76,0.93,2.08
								c0.83,0.32,1.76-0.1,2.08-0.93C148.32,20.07,147.9,19.14,147.07,18.82z"/>
						</g>
					</g>
				</g>
			</g>
			<g>
				<path class="st0" d="M162.87,38.05c0,0-3.3-6.59-3.92-6.39c-0.67,0.21-0.27,5.69-0.15,6.47l2.28,3.34l0.64,0.56L162.87,38.05z"
					/>
				<path class="st0" d="M160.53,56.49c0,0,1.84-2.07,3.1-6.5s1.52-5.91,1.75-9.39c0.21-3.25-1.3-5.05-1.3-5.05
					s-1.31,2.26-1.67,3.85c-0.16,0.72-0.27,3.18-0.34,4.53c-0.01,0.14-0.2,0.16-0.24,0.02c-0.25-0.98-0.6-2.8-1.87-4.25
					c-1.6-1.83-2.92-2.49-3.4-2.74c0,0-0.04,4.06,1.47,7.9C159.66,48.98,161.14,52.58,160.53,56.49z"/>
				<path class="st1" d="M161.74,41.75c0,0-0.87-3.82-1.19-4.73"/>
				<path class="st1" d="M159.43,42.94c0,0,0.88,3.07,2.76,4.79c0,0,1.81-3.23,1.68-6.98"/>
				<g>
					<g>
						<path class="st2" d="M162.03,36.12c0,0,0.92-3.35,0.87-3.78"/>
						<g>
							<path class="st3" d="M164.51,32.18c-0.09-0.89-0.88-1.53-1.77-1.44s-1.53,0.88-1.44,1.77c0.09,0.89,0.88,1.53,1.77,1.44
								C163.95,33.86,164.6,33.07,164.51,32.18z"/>
						</g>
					</g>
				</g>
				<g>
					<g>
						<path class="st2" d="M158.54,36.68c-0.92-0.73-2.66-1.85-3.02-2.25"/>
						<g>
							<path class="st3" d="M156.71,33.35c-0.6-0.66-1.62-0.71-2.28-0.11c-0.66,0.6-0.71,1.62-0.11,2.28
								c0.6,0.66,1.62,0.71,2.28,0.11C157.26,35.03,157.31,34.01,156.71,33.35z"/>
						</g>
					</g>
				</g>
			</g>
			<g>
				<path class="st4" d="M163.48,55.52c0,0-0.88-8.12-1.6-8.16c-0.78-0.04-2.49,5.81-2.67,6.67l1.07,4.36l0.45,0.83L163.48,55.52z"
					/>
				<path class="st4" d="M153.9,73.77c0,0,2.72-1.44,5.74-5.56c3.02-4.12,3.87-5.56,5.46-9.08c1.48-3.29,0.61-5.75,0.61-5.75
					s-2.24,1.85-3.22,3.35c-0.45,0.69-1.51,3.21-2.11,4.58c-0.06,0.14-0.27,0.09-0.26-0.07c0.12-1.12,0.46-3.15-0.3-5.14
					c-0.95-2.52-2.07-3.71-2.48-4.16c0,0-1.61,4.2-1.53,8.77C155.91,65.63,156.06,69.94,153.9,73.77z"/>
				<path class="st5" d="M160.88,58.92c0,0,0.57-4.3,0.6-5.37"/>
				<path class="st5" d="M158.01,59.26c0,0-0.28,3.53,1.01,6.05c0,0,3.13-2.66,4.45-6.6"/>
				<g>
					<g>
						<path class="st6" d="M163.35,53.18c0,0,2.25-3.13,2.37-3.59"/>
						<g>
							<path class="st3" d="M167.46,50.05c0.25-0.96-0.32-1.93-1.28-2.19c-0.96-0.25-1.93,0.32-2.19,1.28
								c-0.25,0.96,0.32,1.93,1.28,2.19C166.23,51.57,167.21,51,167.46,50.05z"/>
						</g>
					</g>
				</g>
				<g>
					<g>
						<path class="st6" d="M159.51,52.41c-0.67-1.11-2.05-2.95-2.27-3.5"/>
						<g>
							<path class="st3" d="M158.91,48.24c-0.37-0.92-1.41-1.36-2.32-1c-0.92,0.37-1.36,1.41-1,2.32c0.37,0.92,1.41,1.36,2.32,1
								C158.83,50.2,159.27,49.16,158.91,48.24z"/>
						</g>
					</g>
				</g>
			</g>
			<g>
				<path class="st4" d="M156.43,72.67c0,0,2.62-7.74,1.98-8.07c-0.69-0.36-4.7,4.23-5.22,4.93l-0.86,4.4l0.06,0.94L156.43,72.67z"
					/>
				<path class="st4" d="M140.06,85.2c0,0,3.07-0.16,7.54-2.63c4.47-2.47,5.85-3.41,8.77-5.94c2.73-2.37,2.97-4.96,2.97-4.96
					s-2.81,0.73-4.33,1.69c-0.7,0.44-2.72,2.27-3.84,3.27c-0.12,0.1-0.28-0.04-0.21-0.17c0.58-0.97,1.74-2.66,1.9-4.79
					c0.2-2.68-0.31-4.24-0.49-4.82c0,0-3.23,3.13-5.08,7.31C145.31,78.66,143.62,82.64,140.06,85.2z"/>
				<path class="st5" d="M152.63,74.67c0,0,2.33-3.66,2.81-4.62"/>
				<path class="st5" d="M149.89,73.77c0,0-1.74,3.09-1.63,5.91c0,0,3.96-1.1,6.81-4.12"/>
				<g>
					<g>
						<path class="st6" d="M157.3,70.5c0,0,3.36-1.89,3.66-2.26"/>
						<g>
							<circle class="st3" cx="160.96" cy="68.24" r="1.79"/>
						</g>
					</g>
				</g>
				<g>
					<g>
						<path class="st6" d="M154.13,68.19c-0.14-1.29-0.61-3.54-0.58-4.13"/>
						<g>
							<path class="st3" d="M155.34,64.15c0.05-0.99-0.7-1.83-1.69-1.88s-1.83,0.7-1.88,1.69c-0.05,0.99,0.7,1.83,1.69,1.88
								S155.28,65.14,155.34,64.15z"/>
						</g>
					</g>
				</g>
			</g>
			<g>
				<path class="st7" d="M142.69,87.23c0,0,6.34-6.6,5.85-7.25c-0.53-0.69-6.78,2.05-7.64,2.51l-2.97,4.06l-0.39,0.99L142.69,87.23z
					"/>
				<path class="st7" d="M120.13,92.14c0,0,3.19,1.3,8.9,0.92c5.71-0.37,7.56-0.67,11.72-1.85c3.89-1.1,5.38-3.62,5.38-3.62
					s-3.19-0.59-5.2-0.35c-0.92,0.11-3.84,1.01-5.44,1.49c-0.17,0.05-0.27-0.17-0.13-0.27c1.05-0.71,3.03-1.87,4.2-3.96
					c1.48-2.63,1.7-4.45,1.79-5.12c0,0-4.77,1.64-8.63,5C128.56,88,124.96,91.24,120.13,92.14z"/>
				<path class="st8" d="M137.89,87.44c0,0,4.11-2.61,5.04-3.35"/>
				<path class="st8" d="M135.54,85.23c0,0-3.23,2.31-4.46,5.22c0,0,4.53,0.77,8.87-0.94"/>
				<g>
					<g>
						<path class="st9" d="M144.6,85.43c0,0,4.3-0.32,4.79-0.55"/>
						<g>
							<path class="st3" d="M150.24,86.7c1-0.47,1.43-1.67,0.96-2.67c-0.47-1-1.67-1.43-2.67-0.96c-1,0.47-1.43,1.67-0.96,2.67
								C148.05,86.74,149.24,87.17,150.24,86.7z"/>
						</g>
					</g>
				</g>
				<g>
					<g>
						<path class="st9" d="M142.49,81.58c0.47-1.38,1.06-3.88,1.38-4.47"/>
						<g>
							<path class="st3" d="M145.64,78.06c0.52-0.97,0.16-2.19-0.82-2.71s-2.19-0.16-2.71,0.82c-0.52,0.97-0.16,2.19,0.82,2.71
								S145.11,79.04,145.64,78.06z"/>
						</g>
					</g>
				</g>
			</g>
			<polygon class="st7" points="122.27,91.57 109.29,95.17 110.33,96.93 123.7,93.58 			"/>
			<path class="st7" d="M108.1,95.37l-0.15,0.05c-0.48,0.15-0.6,0.77-0.21,1.09l0,0l1.55,0.8l1.04-0.39l-1.04-1.76l-0.96,0.15
				C108.25,95.33,108.17,95.35,108.1,95.37z"/>
		</g>
	</g>
	<g>
		<g>
			<path class="st10" d="M143.47,27.03l-0.19,2.4l-7.81,24.62c0,0-0.53,2.78,0.47,5.19c0.45,1.1,2.69,4.7,8.11,4.82
				c4.71,0.11,9.09-4.4,8.53-8.02c-0.44-2.85-8.79-26.8-8.79-26.8L143.47,27.03z"/>
			<line class="st11" x1="135.33" y1="56.23" x2="152.61" y2="56.23"/>
			<line class="st11" x1="135.33" y1="57.52" x2="152.61" y2="57.52"/>
			<line class="st11" x1="135.33" y1="58.8" x2="152.61" y2="58.8"/>
		</g>
		<g>
			<path class="st10" d="M91.95,27.03l-0.19,2.4l-7.81,24.62c0,0-0.53,2.78,0.47,5.19c0.45,1.1,2.69,4.7,8.11,4.82
				c4.71,0.11,9.09-4.4,8.53-8.02c-0.44-2.85-8.79-26.8-8.79-26.8L91.95,27.03z"/>
			<line class="st11" x1="83.81" y1="56.23" x2="101.08" y2="56.23"/>
			<line class="st11" x1="83.81" y1="57.52" x2="101.08" y2="57.52"/>
			<line class="st11" x1="83.81" y1="58.8" x2="101.08" y2="58.8"/>
		</g>
		<polygon class="st12" points="93.15,26.3 116.43,24.39 118.53,24.39 142.36,26.3 143.52,27.47 142.02,27.99 118.69,29.43 
			116.38,29.42 93.14,27.99 91.71,27.47 		"/>
		<path class="st3" d="M128.06,12.22c0,5.97-4.85,10.81-10.82,10.81c-5.97,0-10.81-4.84-10.81-10.81c0-0.21,0-0.42,0.02-0.62
			c0.95,3.86,4.43,6.71,8.58,6.71c4.88,0,8.83-3.95,8.83-8.83c0-3.49-2.03-6.51-4.97-7.94C124.08,2.32,128.06,6.81,128.06,12.22z"/>
		<polygon class="st3" points="114.8,4 114.86,6.78 117.18,8.31 114.55,9.22 113.82,11.9 112.14,9.68 109.36,9.81 110.95,7.53 
			109.97,4.93 112.63,5.73 		"/>
		<path class="st13" d="M117.55,21.79c0,0-1.37,3.61-1.31,5.34c0.06,1.73,1.51,3.11,1.51,3.11s1.23-1.16,1.23-3.08
			S117.55,21.79,117.55,21.79z"/>
		<circle class="st13" cx="91.94" cy="27.22" r="1.21"/>
		<circle class="st13" cx="143.52" cy="27.22" r="1.21"/>
		<g>
			<path class="st14" d="M121.67,28.15C121.67,28.15,121.67,28.15,121.67,28.15c-0.05,0.02-0.46,0.22-0.83,0.01
				c-0.25-0.14-0.35-0.39-0.38-0.49c-0.11-0.29-0.05-0.55-0.03-0.63c0.09-0.34,0.31-0.54,0.43-0.64c0.39-0.33,0.84-0.35,0.96-0.35
				c0.36,0,0.63,0.13,0.77,0.21c0.1,0.05,0.18,0.11,0.6,0.46c0.54,0.46,0.48,0.44,0.63,0.55c0.21,0.15,0.52,0.38,0.97,0.49
				c0.22,0.05,0.51,0.12,0.82,0c0.11-0.04,0.32-0.12,0.42-0.34c0.05-0.12,0.05-0.24,0.04-0.3"/>
			<path class="st14" d="M131.06,27.72C131.07,27.72,131.07,27.72,131.06,27.72c0.04,0.02,0.36,0.17,0.65,0.01
				c0.2-0.11,0.27-0.3,0.3-0.38c0.08-0.23,0.04-0.42,0.02-0.49c-0.07-0.27-0.24-0.42-0.33-0.49c-0.31-0.26-0.66-0.27-0.75-0.27
				c-0.28,0-0.49,0.1-0.6,0.16c-0.08,0.04-0.14,0.08-0.47,0.36c-0.42,0.36-0.38,0.34-0.49,0.42c-0.16,0.12-0.41,0.29-0.76,0.38
				c-0.17,0.04-0.39,0.09-0.64,0c-0.08-0.03-0.25-0.09-0.33-0.26c-0.04-0.09-0.04-0.18-0.03-0.24"/>
			<path class="st14" d="M113.55,28.15C113.55,28.15,113.56,28.15,113.55,28.15c0.05,0.02,0.46,0.22,0.83,0.01
				c0.25-0.14,0.35-0.39,0.38-0.49c0.11-0.29,0.05-0.55,0.03-0.63c-0.09-0.34-0.31-0.54-0.43-0.64c-0.39-0.33-0.84-0.35-0.96-0.35
				c-0.36,0-0.63,0.13-0.77,0.21c-0.1,0.05-0.18,0.11-0.6,0.46c-0.54,0.46-0.48,0.44-0.63,0.55c-0.21,0.15-0.52,0.38-0.97,0.49
				c-0.22,0.05-0.51,0.12-0.82,0c-0.11-0.04-0.32-0.12-0.42-0.34c-0.05-0.12-0.05-0.24-0.04-0.3"/>
			<path class="st14" d="M104.16,27.72C104.16,27.72,104.16,27.72,104.16,27.72c-0.04,0.02-0.36,0.17-0.65,0.01
				c-0.2-0.11-0.27-0.3-0.3-0.38c-0.08-0.23-0.04-0.42-0.02-0.49c0.07-0.27,0.24-0.42,0.33-0.49c0.31-0.26,0.66-0.27,0.75-0.27
				c0.28,0,0.49,0.1,0.6,0.16c0.08,0.04,0.14,0.08,0.47,0.36c0.42,0.36,0.38,0.34,0.49,0.42c0.16,0.12,0.41,0.29,0.76,0.38
				c0.17,0.04,0.39,0.09,0.64,0c0.08-0.03,0.25-0.09,0.33-0.26c0.04-0.09,0.04-0.18,0.03-0.24"/>
		</g>
	</g>
	<g>
		<g>
			<path class="st15" d="M108.64,35.39c0.02,0.04,0.06,0.09,0.07,0.14c0.06,0.39,0.27,0.71,0.43,1.05c0.12,0.24,0.29,0.47,0.44,0.69
				c0.15,0.21,0.12,0.34-0.12,0.43c-0.06,0.03-0.13,0.05-0.23,0.09c-0.01,0.09-0.05,0.18-0.04,0.28c0.02,0.63,0.05,1.26,0.08,1.9
				c0.02,0.41,0.04,0.81,0.06,1.22c0.04,0.91,0.08,1.81,0.11,2.72c0.02,0.41,0.02,0.83,0.03,1.24c0.01,0.22-0.04,0.43-0.13,0.64
				c-0.1,0.24-0.19,0.48-0.29,0.72c-0.07,0.18-0.19,0.32-0.32,0.46c-0.22,0.24-0.44,0.46-0.74,0.6c-0.34,0.16-0.69,0.25-1.06,0.09
				c-0.09-0.04-0.18-0.06-0.26-0.1c-0.46-0.2-0.94-0.21-1.43-0.17c-0.22,0.02-0.4,0.13-0.58,0.24c-0.34,0.19-0.69,0.17-1.04,0.06
				c-0.19-0.06-0.37-0.16-0.55-0.25c-0.09-0.05-0.16-0.12-0.24-0.18c-0.17-0.13-0.33-0.26-0.51-0.38c-0.08-0.05-0.19-0.08-0.29-0.08
				c-0.14,0-0.28,0.03-0.42,0.03c-0.32,0.02-0.64,0.04-0.96,0.05c-0.25,0-0.5,0.03-0.74,0.1c-0.13,0.04-0.28,0.05-0.41,0.07
				c-0.07,0.01-0.14,0.01-0.21,0.03c-0.31,0.1-0.63,0.08-0.95,0.08c-0.54,0-1.08,0.01-1.62,0c-0.22,0-0.43-0.05-0.65-0.08
				c-0.21-0.04-0.41-0.02-0.61,0.07c-0.08,0.04-0.16,0.07-0.24,0.07c-0.6,0.05-0.99,0.39-1.26,0.89c-0.15,0.29-0.28,0.6-0.36,0.93
				c-0.12,0.46-0.37,0.88-0.72,1.22c-0.37,0.36-0.77,0.66-1.18,0.96c-0.14,0.1-0.26,0.22-0.39,0.33c-0.2,0.15-0.4,0.3-0.61,0.44
				c-0.04,0.03-0.1,0.03-0.16,0.05c-0.14,0.05-0.28,0.09-0.42,0.14c-0.23,0.09-0.46,0.21-0.7,0.25c-0.42,0.08-0.85,0.11-1.29,0.06
				c-0.42-0.04-0.8-0.2-1.19-0.31c-0.56-0.16-0.9-0.55-1.07-1.09c-0.11-0.35-0.18-0.71-0.27-1.07c-0.06-0.23-0.05-0.47,0-0.7
				c0.09-0.41,0.17-0.82,0.27-1.23c0.06-0.23,0.17-0.3,0.32-0.26c0.14,0.03,0.17,0.13,0.17,0.36c-0.01,0.2-0.01,0.41-0.01,0.61
				c0.01,0.35,0.17,0.64,0.32,0.94c0.05,0.09,0.11,0.17,0.16,0.26c0.26,0.46,0.68,0.66,1.17,0.69c0.8,0.05,1.54-0.16,2.24-0.56
				c0.76-0.43,1.45-0.96,2.16-1.44c0.14-0.09,0.26-0.22,0.39-0.34c0.12-0.11,0.15-0.25,0.15-0.41c0-0.19-0.08-0.33-0.26-0.41
				c-0.28-0.13-0.56-0.27-0.82-0.44c-0.36-0.23-0.57-0.56-0.74-0.94c-0.08-0.19-0.06-0.39,0.02-0.55c0.15-0.31,0.25-0.63,0.37-0.95
				c0.1-0.29,0.26-0.53,0.46-0.75c0.5-0.19,0.99-0.2,1.49-0.05c0.15,0.04,0.27,0.12,0.36,0.25c0.05,0.06,0.09,0.12,0.15,0.18
				c0.12,0.13,0.17,0.27,0.16,0.45c-0.01,0.1,0,0.2,0,0.3c0,0.14,0.04,0.26,0.12,0.37c0.14,0.22,0.32,0.33,0.59,0.3
				c0.14-0.02,0.28,0,0.43,0c0.18-0.14,0.36-0.27,0.53-0.42c0.19-0.16,0.23-0.3,0.14-0.54c-0.08-0.21-0.13-0.43-0.13-0.66
				c0-0.04-0.01-0.08,0-0.11c0.09-0.29,0.19-0.58,0.37-0.83c0.02-0.02,0.04-0.06,0.06-0.07c0.23-0.09,0.44-0.24,0.7-0.24
				c0.23,0,0.47,0,0.7,0c0.26,0,0.46,0.13,0.6,0.34c0.06,0.09,0.12,0.18,0.21,0.31c0,0.05-0.01,0.13,0,0.22
				c0.02,0.12,0.05,0.24,0.07,0.36c0.03,0.23,0.07,0.46,0.08,0.69c0.02,0.44,0.24,0.75,0.68,0.85c0.31,0.07,0.61,0.01,0.91-0.01
				c0.22-0.02,0.44-0.03,0.65-0.04c0.02,0,0.03,0,0.05,0c0.49-0.08,0.99-0.15,1.47-0.26c0.19-0.05,0.36-0.2,0.54-0.31
				c0.06-0.04,0.11-0.08,0.15-0.11c0.18,0.01,0.25,0.11,0.26,0.25c0.01,0.15,0.1,0.23,0.22,0.31c0.26,0.17,0.54,0.23,0.84,0.26
				c0.15,0.02,0.31,0.03,0.46,0.04c0.05,0,0.1,0,0.14-0.02c0.25-0.12,0.48-0.27,0.49-0.6c0.01-0.23,0.04-0.45,0.05-0.68
				c0.04-0.61,0.11-1.22,0.1-1.82c-0.02-1.01-0.08-2.03-0.13-3.04c-0.01-0.22-0.05-0.43-0.07-0.65c-0.03-0.29-0.06-0.57-0.1-0.86
				c-0.08-0.47-0.16-0.94-0.25-1.4c-0.03-0.16-0.1-0.32-0.11-0.48c-0.02-0.2,0-0.41,0-0.64c0.14-0.22,0.29-0.47,0.46-0.74
				c0-0.04,0-0.1,0-0.16c0-0.09,0.04-0.15,0.12-0.18c0.09-0.04,0.17-0.01,0.23,0.06c0.04,0.04,0.07,0.09,0.08,0.14
				c0.06,0.2,0.13,0.4,0.17,0.61c0.08,0.42,0.18,0.82,0.41,1.19c0.07,0.11,0.1,0.21,0.03,0.32c-0.08,0.12-0.17,0.24-0.23,0.37
				c-0.04,0.09-0.04,0.2-0.03,0.3c0.06,0.46,0.13,0.93,0.19,1.39c0.03,0.29,0.06,0.59,0.05,0.89c-0.02,0.66,0.07,1.32-0.03,1.99
				c-0.03,0.21,0.01,0.44,0.01,0.65c0,0.19,0,0.37,0,0.56c0,0.19,0.02,0.37,0.03,0.56c0,0.04,0.01,0.08,0,0.12
				c-0.05,0.51,0.05,0.99,0.2,1.47c0.08,0.27,0.21,0.46,0.5,0.53c0.12,0.03,0.23,0.09,0.4,0.16c0.23,0.06,0.43-0.07,0.63-0.26
				c0.28-0.26,0.37-0.57,0.38-0.94c0.01-0.83-0.05-1.65-0.12-2.48c-0.02-0.27-0.02-0.55-0.03-0.82c-0.01-0.21,0.01-0.43-0.04-0.63
				c-0.16-0.66-0.15-1.34-0.21-2.02c-0.06-0.65-0.11-1.31-0.05-1.96c0.03-0.33-0.01-0.67,0.13-0.99c0.03-0.06,0.04-0.12,0.07-0.17
				C108.37,35.35,108.43,35.33,108.64,35.39z M97.68,45c0.11-0.17,0.14-0.35,0.13-0.53c-0.01-0.24-0.14-0.38-0.37-0.45
				c-0.17-0.05-0.34-0.01-0.5,0.03c-0.11,0.03-0.16,0.14-0.17,0.26c0,0.12,0,0.23,0,0.37c0.16,0.2,0.34,0.4,0.62,0.46
				C97.49,45.09,97.58,45.05,97.68,45z M92.46,45.63c0.05,0.04,0.08,0.08,0.12,0.11c0.18,0.11,0.46,0.06,0.57-0.1
				c0.12-0.17,0.07-0.38-0.12-0.54c-0.05-0.04-0.1-0.08-0.15-0.11c-0.2-0.12-0.4-0.03-0.42,0.21
				C92.45,45.34,92.46,45.48,92.46,45.63z"/>
			<path class="st15" d="M123.09,46.61c0.14-0.57,0.28-1.12,0.63-1.65c0.14-0.05,0.33-0.14,0.52-0.19c0.33-0.08,0.63,0.05,0.91,0.22
				c0.29,0.18,0.53,0.41,0.6,0.77c0.02,0.09,0.02,0.18,0.01,0.27c-0.02,0.21,0.08,0.36,0.29,0.41c0.31,0.08,0.62-0.06,0.77-0.35
				c0-0.3-0.02-0.59,0.01-0.88c0.03-0.32,0.08-0.63,0.26-0.91c0.2-0.31,0.39-0.62,0.59-0.93c0.07-0.11,0.17-0.21,0.27-0.29
				c0.15-0.12,0.19-0.26,0.13-0.44c-0.09-0.28-0.17-0.57-0.26-0.87c0.01-0.18,0.16-0.21,0.32-0.24c0.25,0.06,0.49,0.16,0.7,0.32
				c0.14,0.1,0.29,0.18,0.44,0.26c0.39,0.19,0.64,0.51,0.91,0.82c0.02,0.03,0.04,0.07,0.07,0.1c0.35,0.33,0.57,0.73,0.75,1.17
				c0.11,0.26,0.22,0.52,0.22,0.8c0,0.34,0,0.67-0.01,1.01c0,0.07-0.02,0.16-0.06,0.22c-0.14,0.24-0.3,0.47-0.45,0.7
				c-0.16,0.25-0.4,0.34-0.67,0.35c-0.46,0.02-0.92,0.02-1.38,0.01c-0.41-0.01-0.79,0.1-1.13,0.32c-0.17,0.11-0.35,0.16-0.55,0.18
				c-0.24,0.02-0.48,0.04-0.72,0.05c-0.11,0.01-0.23-0.01-0.34-0.03c-0.18,0.02-0.22,0.19-0.25,0.32c-0.08,0.39-0.27,0.74-0.42,1.11
				c-0.04,0.09-0.08,0.17-0.11,0.26c-0.09,0.3-0.31,0.48-0.57,0.61c-0.27,0.14-0.55,0.26-0.82,0.41c-0.71,0.39-1.48,0.63-2.23,0.89
				c-0.14,0.05-0.29,0.07-0.43,0.1c-0.34,0.08-0.68,0.18-1.02,0.24c-0.17,0.03-0.34,0.03-0.51,0.01c-0.31-0.04-0.62-0.1-0.92-0.16
				c-0.43-0.08-0.84-0.22-1.17-0.55c-0.17-0.17-0.36-0.32-0.53-0.48c-0.07-0.57-0.17-1.13-0.15-1.69c0.09-0.1,0.18-0.12,0.31-0.05
				c0.03,0.09,0.08,0.18,0.1,0.27c0.08,0.29,0.28,0.45,0.55,0.53c0.67,0.18,1.35,0.31,2.05,0.29c0.39-0.01,0.77-0.07,1.15-0.18
				c0.66-0.2,1.34-0.37,2-0.55c0.1-0.03,0.19-0.07,0.28-0.11c0.36-0.13,0.73-0.27,1.09-0.4c0.16-0.05,0.26-0.12,0.37-0.27
				c-0.01-0.2-0.14-0.31-0.31-0.4c-0.33-0.18-0.64-0.37-0.91-0.64c-0.19-0.19-0.31-0.4-0.35-0.67
				C123.11,46.68,123.1,46.64,123.09,46.61z M128.55,45.99c0.13-0.18,0.15-0.36,0.17-0.55c0.03-0.2-0.05-0.36-0.21-0.42
				c-0.17-0.07-0.35,0-0.46,0.18c-0.11,0.17-0.13,0.37-0.14,0.56c-0.01,0.22,0.23,0.38,0.44,0.32
				C128.42,46.05,128.49,46.02,128.55,45.99z M129.5,44.9c-0.04,0.29,0.08,0.54,0.21,0.78c0.36,0.15,0.51,0.08,0.61-0.25
				c-0.01-0.23-0.14-0.38-0.27-0.52C129.89,44.73,129.71,44.73,129.5,44.9z M124.38,46.1c-0.28,0.09-0.38,0.29-0.29,0.58
				c0.07,0.23,0.33,0.31,0.65,0.21C124.94,46.52,124.81,46.22,124.38,46.1z"/>
			<path class="st15" d="M132.53,51.46c0.12-0.15,0.24-0.3,0.35-0.44c0.34,0.03,0.67,0.05,0.99,0.08c0.05,0,0.09-0.01,0.14-0.02
				c0.4-0.08,0.78-0.25,1.15-0.42c0.66-0.31,1.23-0.76,1.83-1.17c0.37-0.25,0.65-0.61,0.96-0.92c0.1-0.1,0.2-0.2,0.3-0.29
				c0.19-0.19,0.38-0.37,0.56-0.57c0.09-0.1,0.16-0.22,0.24-0.34c-0.37-0.84-0.85-1.6-1.28-2.42c0.04-0.41,0.08-0.85,0.12-1.3
				c0.01-0.13,0.06-0.22,0.21-0.26c0.24,0.02,0.45,0.12,0.65,0.27c0.04,0.03,0.07,0.07,0.11,0.08c0.22,0.08,0.26,0.24,0.21,0.45
				c-0.06,0.26,0.02,0.49,0.11,0.73c0.07,0.19,0.14,0.38,0.22,0.57c0.14,0.34,0.32,0.66,0.55,0.95c0.05,0.07,0.11,0.14,0.15,0.21
				c0.22,0.38,0.43,0.76,0.64,1.14c0.04,0.07,0.1,0.14,0.14,0.2c0.21,0.01,0.41,0.1,0.6-0.05c-0.24-0.27-0.28-0.59-0.3-0.91
				c-0.02-0.26-0.01-0.53,0-0.8c0-0.23,0.05-0.45,0.16-0.65c0.22-0.41,0.43-0.81,0.73-1.17c0.11-0.13,0.25-0.24,0.39-0.32
				c0.45-0.26,0.95-0.42,1.46-0.5c0.61-0.1,1.2-0.02,1.7,0.39c0.19,0.15,0.39,0.28,0.58,0.42c0.03,0.08,0.06,0.15,0.09,0.24
				c-0.28,0.3-0.63,0.4-1.02,0.37c-0.21-0.02-0.41-0.08-0.62-0.11c-0.29-0.05-0.56,0.02-0.82,0.12c-0.25,0.1-0.44,0.27-0.6,0.48
				c-0.07,0.09-0.12,0.22-0.15,0.34c-0.12,0.49-0.05,0.98,0.14,1.44c0.11,0.27,0.35,0.44,0.6,0.57c0.19,0.1,0.39,0.15,0.61,0.13
				c0.33-0.03,0.65-0.06,0.98-0.1c0.08-0.01,0.15-0.04,0.19-0.05c0.14,0,0.25,0,0.36,0c0.27,0.01,0.41,0.25,0.28,0.49
				c-0.08,0.15-0.19,0.3-0.3,0.43c-0.23,0.28-0.43,0.6-0.76,0.78c-0.24,0.14-0.49,0.26-0.74,0.39c-0.17,0.09-0.35,0.16-0.53,0.23
				c-0.13,0.05-0.27,0.1-0.4,0.11c-0.4,0.03-0.79,0.03-1.19,0.05c-0.4,0.01-0.78-0.06-1.15-0.24c-0.49-0.25-0.88-0.6-1.22-1.02
				c-0.02-0.03-0.03-0.07-0.06-0.11c-0.08-0.01-0.16-0.03-0.25-0.04c-0.05,0.05-0.09,0.08-0.13,0.13c-0.29,0.33-0.56,0.68-0.86,0.99
				c-0.31,0.31-0.66,0.57-0.97,0.88c-0.46,0.46-1.01,0.75-1.59,1.01c-0.27,0.12-0.55,0.23-0.82,0.34c-0.39,0.16-0.81,0.22-1.22,0.16
				c-0.32-0.05-0.63-0.17-0.94-0.26c-0.05-0.02-0.12-0.07-0.14-0.12c-0.09-0.19-0.23-0.33-0.37-0.47
				C132.56,51.54,132.55,51.51,132.53,51.46z"/>
			<path class="st15" d="M132.24,45.7c0.01-0.08,0.01-0.17,0.03-0.25c0.1-0.44,0.21-0.89,0.62-1.16c0.32-0.21,0.68-0.33,1.05-0.34
				c0.52-0.02,0.93,0.29,1.12,0.78c0.12,0.31,0.31,0.4,0.62,0.32c0.13-0.11,0.16-0.26,0.16-0.42c0-0.26,0-0.52,0-0.77
				c0-0.19,0.03-0.39,0.02-0.58c-0.01-0.27-0.01-0.55-0.05-0.82c-0.1-0.67-0.2-1.34-0.32-2.01c-0.17-1-0.36-2-0.54-2.99
				c-0.05-0.3-0.1-0.6-0.15-0.91c0.13-0.42,0.26-0.84,0.4-1.26c0.06-0.18,0.1-0.2,0.31-0.17c0.4,0.8,0.8,1.61,1.21,2.43
				c-0.03,0.07-0.04,0.14-0.08,0.21c-0.11,0.17-0.21,0.34-0.34,0.51c-0.13,0.17-0.14,0.36-0.12,0.55c0.03,0.26,0.07,0.53,0.1,0.79
				c0.06,0.49,0.12,0.97,0.18,1.46c0.09,0.74,0.18,1.47,0.33,2.2c0.07,0.37,0.1,0.74,0.13,1.11c0.03,0.27,0.05,0.54,0.04,0.82
				c0,0.23-0.02,0.47-0.07,0.7c-0.13,0.56-0.43,1.02-0.95,1.3c-0.16,0.09-0.35,0.12-0.52,0.18c-0.11,0.04-0.23,0.06-0.34,0.1
				c-0.06,0.02-0.12,0.06-0.15,0.11c-0.09,0.19-0.25,0.37-0.18,0.58c-0.03,0.12-0.07,0.21-0.08,0.31c-0.05,0.32-0.26,0.54-0.47,0.76
				c-0.05,0.05-0.1,0.1-0.15,0.14c-0.75,0.59-1.54,1.12-2.35,1.63c-0.09,0.06-0.2,0.1-0.3,0.12c-0.43,0.06-0.83,0.21-1.24,0.32
				c-0.37,0.09-0.74,0.19-1.11,0.27c-0.08,0.02-0.17,0.03-0.25,0.01c-0.5-0.1-1.01-0.19-1.51-0.33c-0.27-0.07-0.51-0.22-0.77-0.35
				c-0.05-0.03-0.1-0.08-0.13-0.13c-0.22-0.35-0.43-0.7-0.65-1.05c0.05-0.08,0.11-0.18,0.19-0.31c0.21-0.12,0.46-0.08,0.67,0.06
				c0.26,0.18,0.55,0.26,0.84,0.36c0.15,0.05,0.34,0.04,0.51,0.02c0.29-0.03,0.57-0.07,0.85-0.11c0.13-0.02,0.27-0.02,0.39-0.05
				c0.33-0.08,0.66-0.19,0.99-0.26c0.35-0.07,0.66-0.23,0.98-0.37c0.41-0.18,0.82-0.34,1.22-0.53c0.29-0.13,0.57-0.29,0.84-0.45
				c0.32-0.2,0.32-0.52-0.01-0.7c-0.36-0.2-0.59-0.53-0.85-0.82c-0.15-0.17-0.19-0.4-0.14-0.64c0.02-0.1,0-0.21,0-0.32
				C132.25,45.72,132.24,45.71,132.24,45.7z M133.88,45.05c-0.34,0-0.53,0.22-0.43,0.54c0.03,0.11,0.1,0.24,0.19,0.31
				c0.26,0.2,0.44,0.16,0.59-0.08c0.08-0.13,0.09-0.26,0.07-0.4C134.26,45.17,134.13,45.05,133.88,45.05z"/>
			<path class="st15" d="M118.66,45.62c0.01-0.16,0.01-0.3-0.07-0.45c-0.06-0.11-0.07-0.25-0.07-0.38c-0.01-0.15,0.01-0.3,0.02-0.44
				c0.01-0.49,0.11-0.96,0.38-1.38c0.3-0.47,0.73-0.76,1.31-0.76c0.24,0,0.48,0.09,0.69,0.21c0.17,0.09,0.3,0.24,0.5,0.28
				c0.03,0.01,0.05,0.03,0.08,0.05c0.28,0.28,0.58,0.55,0.79,0.89c0.08,0.13,0.17,0.26,0.25,0.39c0.13,0.19,0.19,0.4,0.25,0.63
				c0.09,0.36,0.02,0.71,0,1.07c-0.01,0.11-0.05,0.21-0.09,0.31c-0.13,0.34-0.18,0.72-0.39,1.04c-0.13,0.2-0.3,0.37-0.49,0.49
				c-0.13,0.07-0.29,0.1-0.45,0.1c-0.77,0.01-1.53,0.01-2.3,0c-0.13,0-0.26-0.03-0.39-0.04c-0.33-0.01-0.65,0.02-0.96,0.15
				c-0.04,0.01-0.07,0.03-0.11,0.03c-0.62,0.05-1.16,0.36-1.71,0.62c-0.23,0.11-0.41,0.31-0.61,0.46c-0.38,0.28-0.72,0.6-0.99,0.99
				c-0.02,0.03-0.04,0.05-0.06,0.07c-0.34,0.36-0.68,0.71-1.01,1.07c-0.24,0.26-0.55,0.42-0.85,0.6c-0.16,0.1-0.32,0.2-0.46,0.32
				c-0.28,0.23-0.6,0.36-0.95,0.4c-0.17,0.02-0.37,0.02-0.53-0.03c-0.36-0.11-0.74-0.21-1.07-0.39c-0.35-0.19-0.67-0.46-0.87-0.83
				c-0.04-0.07-0.07-0.15-0.06-0.22c0.04-0.4,0.24-0.73,0.45-1.09c0.08,0.04,0.16,0.06,0.21,0.12c0.15,0.17,0.33,0.29,0.52,0.39
				c0.26,0.13,0.51,0.28,0.78,0.36c0.45,0.13,0.89,0.09,1.27-0.24c0.34-0.3,0.68-0.6,1-0.91c0.24-0.23,0.46-0.48,0.7-0.71
				c0.09-0.09,0.2-0.15,0.31-0.23c0.03-0.05,0.06-0.12,0.12-0.18c0.39-0.39,0.77-0.78,1.17-1.15c0.13-0.13,0.3-0.22,0.47-0.31
				c0.38-0.21,0.77-0.41,1.16-0.6c0.12-0.06,0.27-0.09,0.4-0.13c0.24-0.09,0.48-0.18,0.73-0.26c0.15-0.05,0.29-0.1,0.47-0.08
				C118.35,45.85,118.55,45.79,118.66,45.62z M120.88,43.86c-0.07-0.09-0.13-0.2-0.22-0.27c-0.12-0.09-0.27-0.16-0.43-0.09
				c-0.26,0.1-0.32,0.31-0.17,0.6c0.23,0.11,0.46,0.12,0.68-0.03C120.78,44.01,120.82,43.95,120.88,43.86z"/>
			<path class="st15" d="M86.92,38.19c0.05,0,0.1,0,0.16,0c0.04,0.31,0.07,0.61,0.11,0.91c0.07,0.61,0.23,1.19,0.63,1.68
				c0.14,0.17,0.27,0.34,0.42,0.5c0.06,0.06,0.13,0.11,0.2,0.15c0.37,0.2,0.76,0.32,1.19,0.31c0.76-0.02,1.53-0.01,2.29-0.07
				c0.72-0.05,1.44-0.17,2.14-0.36c0.24-0.06,0.47-0.18,0.7-0.27c0.55-0.23,1.09-0.46,1.64-0.68c0.29-0.11,0.53-0.29,0.74-0.52
				c0.26-0.29,0.15-0.63-0.23-0.7c-0.33-0.07-0.67-0.06-0.99,0.06c-0.04,0.01-0.07,0.02-0.1,0.03c-0.58-0.15-0.78-0.66-0.75-1.09
				c0.02-0.29,0.17-0.57,0.28-0.86c0.02-0.05,0.07-0.08,0.11-0.12c0.38-0.31,0.75-0.63,1.14-0.94c0.32-0.25,0.65-0.48,0.97-0.73
				c0.33-0.25,0.64-0.52,0.97-0.77c0.26-0.2,0.54-0.37,0.89-0.38c0.24-0.01,0.43,0.11,0.63,0.22c0.18,0.1,0.35,0.2,0.52,0.32
				c0.31,0.21,0.48,0.49,0.28,0.87c-0.07,0.14-0.13,0.28-0.21,0.41c-0.1,0.16-0.24,0.26-0.44,0.26c-0.07,0-0.14,0-0.21,0.02
				c-0.13,0.03-0.24-0.01-0.34-0.1c-0.06-0.05-0.11-0.11-0.18-0.15c-0.14-0.09-0.28-0.16-0.46-0.15c-0.14,0.01-0.28,0.01-0.42,0
				c-0.19-0.01-0.35,0.05-0.5,0.16c-0.25,0.19-0.49,0.38-0.74,0.57c-0.09,0.07-0.16,0.15-0.14,0.27c0.03,0.14,0.12,0.23,0.25,0.24
				c0.34,0.03,0.59,0.24,0.82,0.45c0.2,0.18,0.34,0.41,0.31,0.7c0,0.04-0.01,0.08,0,0.12c0.13,0.55-0.09,1.04-0.33,1.49
				c-0.18,0.35-0.42,0.67-0.78,0.88c-0.19,0.11-0.37,0.23-0.57,0.32c-0.14,0.06-0.26,0.17-0.39,0.26c-0.28,0.19-0.58,0.33-0.91,0.42
				c-0.21,0.06-0.42,0.12-0.62,0.21c-0.45,0.2-0.92,0.34-1.4,0.46c-0.31,0.07-0.62,0.18-0.93,0.24c-0.44,0.09-0.88,0.14-1.31,0.22
				c-0.53,0.1-1.07,0.11-1.61,0.11c-0.16,0-0.32,0.04-0.49,0.05c-0.19,0.01-0.39,0.03-0.58,0.02c-0.13-0.01-0.26-0.06-0.37-0.12
				c-0.18-0.1-0.36-0.21-0.53-0.33c-0.16-0.11-0.31-0.22-0.38-0.42c-0.03-0.1-0.14-0.17-0.19-0.26c-0.19-0.38-0.36-0.77-0.34-1.22
				c0.01-0.22-0.05-0.43-0.06-0.65c-0.02-0.36-0.04-0.71-0.04-1.07C86.77,38.85,86.78,38.51,86.92,38.19z"/>
			<path class="st15" d="M120.97,36.48c0.27,0.26,0.55,0.52,0.82,0.79c0.18,0.19,0.15,0.37-0.08,0.49
				c-0.17,0.09-0.36,0.15-0.54,0.22c-0.15,0.05-0.31,0.06-0.41,0.2c-0.03,0.03-0.08,0.05-0.12,0.06c-0.92,0.37-1.83,0.76-2.76,1.09
				c-0.61,0.22-1.24,0.36-1.86,0.54c-0.09,0.02-0.18,0.03-0.28,0.04c-0.58,0.09-1.15,0.2-1.73,0.28c-0.55,0.08-1.1,0.11-1.66,0.07
				c-0.05,0-0.09-0.01-0.14,0c-0.38,0.04-0.7-0.09-1.01-0.29c-0.15-0.1-0.3-0.19-0.44-0.3c-0.29-0.23-0.41-0.55-0.43-0.9
				c-0.02-0.26-0.01-0.53-0.02-0.8c-0.02-0.33,0.15-0.58,0.29-0.85c0.03-0.06,0.12-0.09,0.21-0.15c0.05,0.1,0.1,0.16,0.13,0.24
				c0.09,0.27,0.24,0.51,0.4,0.74c0.22,0.32,0.53,0.46,0.9,0.46c0.68,0,1.36,0,2.03-0.05c0.49-0.04,0.98-0.15,1.48-0.24
				c0.17-0.03,0.34-0.05,0.51-0.09c0.12-0.03,0.23-0.09,0.35-0.13c0.6-0.22,1.2-0.44,1.8-0.66c0.51-0.19,1.02-0.38,1.54-0.56
				c0.14-0.05,0.3-0.07,0.45-0.1c0.11-0.02,0.23-0.05,0.34-0.06C120.81,36.5,120.88,36.49,120.97,36.48z"/>
			<path class="st15" d="M147.45,34.19c0.19-0.03,0.29,0.03,0.34,0.18c0.4,1.03,0.8,2.06,1.2,3.09c0.01,0.01,0,0.03,0,0.06
				c-0.04,0.1-0.1,0.19-0.2,0.28c-0.18,0.16-0.31,0.37-0.48,0.54c-0.2,0.21-0.26,0.44-0.23,0.72c0.03,0.31,0.01,0.62,0.02,0.94
				c0.01,2.12,0.02,4.23,0.04,6.35c0,0.22-0.05,0.42-0.11,0.62c-0.1,0.34-0.21,0.67-0.32,1c-0.02,0.07-0.08,0.12-0.12,0.17
				c-0.17-0.04-0.25-0.13-0.3-0.27c-0.11-0.32-0.22-0.65-0.34-0.97c-0.1-0.26-0.07-0.52-0.05-0.79c0.01-0.08,0.08-0.16,0.12-0.23
				c0-0.44,0.01-0.87,0-1.31c-0.01-0.55-0.02-1.11-0.05-1.66c-0.03-0.63-0.08-1.26-0.12-1.89c-0.04-0.54-0.08-1.09-0.11-1.63
				c-0.06-0.89-0.11-1.78-0.17-2.66c-0.01-0.23-0.03-0.45-0.04-0.68c0-0.07,0.03-0.15,0.06-0.22c0.22-0.48,0.45-0.96,0.68-1.44
				C147.32,34.32,147.4,34.25,147.45,34.19z"/>
			<path class="st15" d="M131.67,42.89c-0.15-2.11-0.57-4.16-0.84-6.25c0.14-0.32,0.28-0.65,0.43-0.98
				c0.05-0.12,0.13-0.19,0.31-0.13c0.34,0.66,0.69,1.33,1.05,2.02c-0.04,0.06-0.07,0.12-0.11,0.18c-0.12,0.14-0.24,0.29-0.36,0.42
				c-0.1,0.1-0.12,0.22-0.1,0.35c0.1,1.1,0.2,2.19,0.3,3.29c0.04,0.45,0.08,0.9,0.1,1.35c0.01,0.14-0.01,0.28-0.04,0.42
				c-0.06,0.25-0.13,0.49-0.21,0.76c-0.08-0.03-0.15-0.05-0.19-0.07c-0.12-0.24-0.23-0.47-0.33-0.69
				C131.58,43.34,131.56,43.11,131.67,42.89z"/>
			<path class="st15" d="M122.59,37.2c0.14-0.23,0.29-0.46,0.43-0.7c0.07-0.11,0.15-0.16,0.3-0.09c0.25,0.53,0.51,1.07,0.78,1.63
				c-0.14,0.21-0.38,0.32-0.55,0.53c0,0.07-0.01,0.16-0.01,0.25c0.01,1.17,0.02,2.34,0.02,3.51c0,0.13-0.04,0.26-0.08,0.38
				c-0.06,0.17-0.14,0.33-0.2,0.49c-0.12,0.03-0.18-0.02-0.21-0.11c-0.08-0.18-0.16-0.36-0.23-0.54c-0.06-0.17-0.05-0.34,0.06-0.46
				C122.91,40.46,122.68,38.85,122.59,37.2z"/>
			<path class="st15" d="M114.41,37.65c-0.11-0.15-0.15-0.3-0.14-0.41c0.12-0.28,0.34-0.32,0.56-0.38c0.46-0.12,0.91-0.26,1.37-0.4
				c0.19-0.05,0.33-0.16,0.43-0.33c0.1-0.17,0.23-0.33,0.27-0.55c-0.16-0.24-0.23-0.51-0.2-0.8c0.01-0.11,0.05-0.23,0.11-0.32
				c0.19-0.26,0.59-0.39,0.9-0.29c0.17,0.05,0.33,0.13,0.49,0.19c0.34,0.71,0.06,1.31-0.29,1.92
				C116.75,36.73,115.6,37.24,114.41,37.65z M117.52,34.73c-0.11,0-0.21,0.1-0.2,0.21c0.01,0.1,0.1,0.19,0.2,0.19
				c0.11,0,0.21-0.09,0.21-0.2C117.73,34.82,117.63,34.73,117.52,34.73z"/>
			<path class="st15" d="M129.51,35.28c0.11,0.18,0.19,0.32,0.28,0.45c0.13,0.18,0.17,0.39,0.13,0.6c-0.06,0.33-0.09,0.66-0.24,0.97
				c-0.11,0.24-0.25,0.43-0.47,0.57c-0.46,0.29-0.95,0.51-1.51,0.48c-0.08,0-0.16-0.03-0.25-0.05c0.01-0.08,0.02-0.14,0.02-0.17
				c0.17-0.14,0.31-0.26,0.46-0.37c0.07-0.05,0.15-0.08,0.23-0.11c0.11-0.05,0.23-0.08,0.34-0.14c0.13-0.07,0.22-0.17,0.23-0.33
				c-0.04-0.22-0.22-0.23-0.41-0.24c-0.08-0.16-0.17-0.31-0.24-0.48c-0.09-0.21-0.06-0.43-0.01-0.64c0.06-0.27,0.25-0.46,0.44-0.64
				c0.16-0.15,0.38-0.13,0.58-0.08C129.25,35.15,129.39,35.23,129.51,35.28z M128.74,35.88c0.03,0.23,0.1,0.43,0.28,0.56
				c0.14-0.03,0.18-0.12,0.17-0.22c-0.01-0.09-0.03-0.19-0.06-0.27C129.05,35.76,128.94,35.74,128.74,35.88z"/>
			<path class="st15" d="M103.41,38.45c0.22-0.08,0.27-0.07,0.37,0.09c0.18,0.29,0.23,0.61,0.26,0.94c0.01,0.12,0,0.23,0,0.35
				c-0.01,0.5-0.35,0.84-0.85,0.82c-0.47-0.02-0.93-0.1-1.37-0.24c-0.06-0.02-0.12-0.06-0.15-0.1c-0.14-0.23-0.28-0.47-0.34-0.74
				c-0.06-0.26,0.01-0.5,0.14-0.72c0.1-0.17,0.22-0.32,0.33-0.48c0.05-0.07,0.1-0.12,0.21-0.07c-0.02,0.14-0.02,0.28-0.05,0.42
				c-0.07,0.28-0.11,0.55,0.01,0.85c0.05,0.02,0.12,0.05,0.19,0.06c0.19,0.05,0.3-0.04,0.31-0.24c0-0.12-0.01-0.23-0.01-0.35
				c0-0.14,0.07-0.25,0.17-0.34c0.11-0.1,0.24-0.09,0.32,0.03c0.06,0.09,0.09,0.2,0.11,0.3c0.01,0.11-0.01,0.23-0.02,0.35
				c-0.01,0.09-0.02,0.17-0.01,0.26c0.02,0.14,0.12,0.23,0.26,0.22c0.13,0,0.23-0.09,0.24-0.24c0.01-0.3,0.04-0.59-0.05-0.88
				C103.44,38.65,103.43,38.56,103.41,38.45z"/>
			<path class="st15" d="M145.77,50.38c1.22-0.78,2.41-1.54,3.63-2.32c0.15,0.14,0.3,0.28,0.45,0.42c-0.05,0.06-0.08,0.1-0.12,0.13
				c-1.05,0.77-2.1,1.54-3.16,2.3c-0.09,0.07-0.21,0.11-0.31,0.16c-0.17,0.08-0.33,0.02-0.46-0.08c-0.06-0.04-0.09-0.15-0.09-0.22
				C145.71,50.65,145.75,50.52,145.77,50.38z"/>
			<path class="st15" d="M125.31,33.34c0.15,0.15,0.29,0.27,0.43,0.41c-0.05,0.05-0.09,0.09-0.13,0.12
				c-1.04,0.76-2.08,1.52-3.12,2.28c-0.08,0.06-0.17,0.1-0.27,0.15c-0.22,0.11-0.4,0.03-0.58-0.1c-0.05-0.2-0.02-0.37,0.05-0.54
				C122.89,34.88,124.09,34.12,125.31,33.34z"/>
			<path class="st15" d="M105.58,50.54c0.02-0.16,0.04-0.33,0.06-0.49c1.22-0.78,2.42-1.54,3.64-2.32c0.15,0.13,0.28,0.26,0.44,0.41
				c-0.06,0.05-0.1,0.1-0.15,0.13c-1.03,0.75-2.06,1.5-3.08,2.25c-0.08,0.06-0.17,0.11-0.26,0.15
				C105.99,50.78,105.79,50.73,105.58,50.54z"/>
			<path class="st15" d="M111.5,47.07c0.02-0.16,0.04-0.33,0.06-0.49c1.22-0.78,2.42-1.54,3.64-2.32c0.15,0.13,0.28,0.26,0.44,0.41
				c-0.06,0.05-0.1,0.1-0.15,0.13c-1.03,0.75-2.06,1.5-3.08,2.25c-0.08,0.06-0.17,0.11-0.26,0.15
				C111.91,47.31,111.71,47.26,111.5,47.07z"/>
			<path class="st15" d="M103.84,34.98c0.15,0.14,0.29,0.27,0.43,0.41c-0.05,0.05-0.09,0.09-0.13,0.12
				c-1.03,0.75-2.07,1.51-3.1,2.26c-0.08,0.06-0.17,0.11-0.26,0.15c-0.22,0.11-0.42,0.05-0.6-0.09c-0.05-0.19-0.02-0.37,0.05-0.54
				C101.42,36.52,102.61,35.76,103.84,34.98z"/>
			<path class="st15" d="M124.14,42.91c0.02-0.17,0.04-0.34,0.06-0.49c1.22-0.78,2.42-1.54,3.62-2.31c0.19,0.09,0.31,0.25,0.45,0.4
				c-0.05,0.05-0.09,0.09-0.14,0.13c-1.03,0.75-2.06,1.5-3.08,2.25c-0.08,0.06-0.17,0.11-0.26,0.15
				C124.56,43.14,124.36,43.08,124.14,42.91z"/>
			<path class="st15" d="M139.52,51.34c0.15,0.14,0.29,0.27,0.43,0.41c-0.06,0.05-0.1,0.09-0.15,0.13c-1.03,0.75-2.06,1.5-3.08,2.25
				c-0.08,0.06-0.17,0.11-0.26,0.15c-0.22,0.11-0.42,0.06-0.6-0.1c-0.05-0.18-0.02-0.35,0.05-0.53
				C137.09,52.89,138.29,52.12,139.52,51.34z"/>
			<path class="st15" d="M98.57,40.5c0.2,0.22,0.46,0.35,0.71,0.5c0.29-0.2,0.52-0.44,0.72-0.73c0.09,0.04,0.17,0.06,0.23,0.11
				c0.19,0.17,0.38,0.34,0.57,0.52c0.1,0.09,0.13,0.21,0.07,0.34c-0.06,0.14-0.12,0.29-0.19,0.43c-0.12,0.23-0.21,0.27-0.47,0.22
				c-0.06-0.01-0.12-0.02-0.18-0.03c-0.22-0.15-0.43-0.29-0.66-0.45c-0.16,0.02-0.23,0.16-0.31,0.28c-0.13,0.21-0.29,0.38-0.52,0.5
				c-0.31-0.1-0.48-0.36-0.7-0.57c-0.05-0.05-0.06-0.14-0.08-0.19C98.02,41.11,98.29,40.82,98.57,40.5z"/>
			<path class="st15" d="M142.59,38.36c-0.12-0.09-0.23-0.17-0.36-0.26c0.06-0.04,0.1-0.08,0.15-0.1c0.28-0.16,0.55-0.32,0.83-0.48
				c0.04-0.02,0.09-0.05,0.11-0.09c0.1-0.19,0.28-0.31,0.44-0.45c0.06-0.05,0.1-0.11,0.16-0.19c-0.12-0.06-0.21-0.12-0.31-0.17
				c-0.18-0.19-0.15-0.42-0.07-0.65c0.02-0.07,0.09-0.13,0.16-0.16c0.16-0.08,0.32-0.15,0.49-0.22c0.12,0.1,0.24,0.18,0.33,0.29
				c0.08,0.11,0.15,0.24,0.18,0.37c0.09,0.35,0.03,0.71,0,1.07c-0.01,0.16-0.12,0.25-0.25,0.31c-0.17,0.08-0.34,0.15-0.51,0.23
				c-0.32,0.14-0.64,0.28-0.97,0.41C142.85,38.3,142.73,38.32,142.59,38.36z"/>
			<path class="st15" d="M98.59,49.5c-0.17-0.19-0.15-0.42-0.06-0.64c0.03-0.07,0.09-0.13,0.15-0.17c0.16-0.09,0.34-0.15,0.54-0.24
				c0.04,0.06,0.07,0.13,0.12,0.16c0.37,0.23,0.39,0.59,0.39,0.97c0,0.18-0.02,0.36-0.03,0.54c-0.01,0.19-0.1,0.32-0.28,0.4
				c-0.27,0.11-0.53,0.22-0.8,0.33c-0.19,0.08-0.38,0.18-0.58,0.26c-0.14,0.06-0.28,0.1-0.43,0.15c-0.12-0.08-0.24-0.16-0.4-0.27
				c0.21-0.12,0.39-0.22,0.57-0.32c0.17-0.1,0.34-0.21,0.5-0.35c0.21-0.2,0.42-0.4,0.65-0.63C98.79,49.61,98.69,49.56,98.59,49.5z"
				/>
			<path class="st15" d="M89.59,45.03c0.08,0.15,0.16,0.3,0.23,0.44c0.04,0.08,0.08,0.16,0.08,0.24c0.01,0.37,0,0.73,0,1.1
				c0,0.11-0.04,0.22-0.04,0.32c0,0.27-0.09,0.5-0.22,0.73c-0.12,0.21-0.23,0.43-0.34,0.64c-0.01,0.03-0.03,0.06-0.04,0.08
				c-0.23,0.41-0.21,0.45-0.73,0.24c-0.02-0.05-0.05-0.1-0.09-0.18c0.04-0.08,0.08-0.17,0.13-0.25c0.31-0.49,0.61-0.98,0.61-1.58
				c0-0.52,0-1.05,0-1.6C89.31,45.02,89.34,45.01,89.59,45.03z"/>
			<path class="st15" d="M119.97,39.45c0.05,0.04,0.13,0.09,0.24,0.17c0.16,0.02,0.33,0.11,0.46,0.28c0.05,0.06,0.13,0.1,0.21,0.14
				c0.21,0.11,0.27,0.24,0.19,0.46c-0.08,0.2-0.15,0.41-0.23,0.61c-0.02,0.07-0.05,0.13-0.08,0.19c-0.1,0.17-0.22,0.21-0.39,0.12
				c-0.29-0.16-0.59-0.32-0.87-0.5c-0.2-0.12-0.24-0.24-0.17-0.46c0.08-0.23,0.2-0.45,0.3-0.68c0.03-0.06,0.06-0.11,0.09-0.16
				C119.75,39.52,119.82,39.46,119.97,39.45z"/>
			<path class="st15" d="M113.81,41.39c-0.25,0.38-0.43,0.75-0.5,1.15c-0.1,0.04-0.17,0.07-0.26,0.11
				c-0.43-0.19-0.87-0.38-1.32-0.58c0.02-0.07,0.04-0.13,0.06-0.2c0.07-0.22,0.15-0.44,0.23-0.66c0.05-0.15,0.11-0.29,0.28-0.36
				C112.78,41.02,113.27,41.2,113.81,41.39z"/>
			<path class="st15" d="M117.95,40.19c0.24,0.1,0.5,0.2,0.75,0.31c0.11,0.05,0.23,0.09,0.35,0.13c0.17,0.06,0.22,0.19,0.13,0.35
				c-0.08,0.14-0.17,0.28-0.25,0.42c-0.08,0.15-0.16,0.31-0.26,0.51c-0.19,0.03-0.41,0.01-0.64-0.06c-0.13-0.04-0.25-0.06-0.38-0.08
				c-0.27-0.03-0.35-0.15-0.28-0.41c0.03-0.11,0.05-0.23,0.07-0.34c0.02-0.15,0.07-0.28,0.15-0.41c0.04-0.06,0.07-0.12,0.08-0.19
				C117.72,40.3,117.78,40.23,117.95,40.19z"/>
			<path class="st15" d="M101.13,42.34c0-0.18,0.07-0.26,0.18-0.32c0.24-0.12,0.49-0.24,0.74-0.35c0.14-0.06,0.28-0.03,0.39,0.07
				c0.09,0.08,0.17,0.18,0.25,0.28c0.09,0.11,0.18,0.21,0.27,0.32c0.14,0.16,0.13,0.31-0.04,0.44c-0.11,0.08-0.23,0.16-0.34,0.24
				c-0.12,0.09-0.24,0.19-0.36,0.29c-0.22,0.19-0.37,0.18-0.53-0.05c-0.16-0.23-0.31-0.46-0.46-0.7
				C101.18,42.48,101.15,42.39,101.13,42.34z"/>
			<path class="st15" d="M103.32,41.45c0.02-0.06,0.02-0.12,0.05-0.16c0.04-0.05,0.1-0.13,0.15-0.13c0.21,0,0.42-0.07,0.62,0.03
				c0.05,0.02,0.1,0.05,0.13,0.09c0.2,0.24,0.39,0.49,0.57,0.72c-0.02,0.08-0.02,0.14-0.05,0.18c-0.21,0.28-0.39,0.59-0.76,0.7
				c-0.2,0.06-0.29,0.03-0.42-0.15c-0.14-0.2-0.29-0.41-0.43-0.61c-0.19-0.27-0.19-0.37,0.05-0.6
				C103.27,41.5,103.3,41.48,103.32,41.45z"/>
			<path class="st15" d="M91.65,36.42c0.03-0.1,0.05-0.2,0.08-0.32c0.11,0,0.21,0,0.31,0c0.09,0,0.19,0,0.28-0.02
				c0.15-0.03,0.18-0.08,0.19-0.29c-0.06-0.05-0.14-0.1-0.22-0.16c-0.13-0.23-0.09-0.43,0.11-0.59c0.21-0.16,0.45-0.14,0.64,0.03
				c0.24,0.21,0.37,0.47,0.51,0.74c-0.03,0.08-0.05,0.14-0.08,0.21c0,0.01,0,0.03,0,0.04c0.05,0.32-0.15,0.62-0.47,0.66
				c-0.33,0.03-0.66,0.03-0.97-0.07C91.89,36.61,91.78,36.5,91.65,36.42z"/>
		</g>
		<g>
			<path class="st3" d="M108.64,35.39c0.02,0.04,0.06,0.09,0.07,0.14c0.06,0.39,0.27,0.71,0.43,1.05c0.12,0.24,0.29,0.47,0.44,0.69
				c0.15,0.21,0.12,0.34-0.12,0.43c-0.06,0.03-0.13,0.05-0.23,0.09c-0.01,0.09-0.05,0.18-0.04,0.28c0.02,0.63,0.05,1.26,0.08,1.9
				c0.02,0.41,0.04,0.81,0.06,1.22c0.04,0.91,0.08,1.81,0.11,2.72c0.02,0.41,0.02,0.83,0.03,1.24c0.01,0.22-0.04,0.43-0.13,0.64
				c-0.1,0.24-0.19,0.48-0.29,0.72c-0.07,0.18-0.19,0.32-0.32,0.46c-0.22,0.24-0.44,0.46-0.74,0.6c-0.34,0.16-0.69,0.25-1.06,0.09
				c-0.09-0.04-0.18-0.06-0.26-0.1c-0.46-0.2-0.94-0.21-1.43-0.17c-0.22,0.02-0.4,0.13-0.58,0.24c-0.34,0.19-0.69,0.17-1.04,0.06
				c-0.19-0.06-0.37-0.16-0.55-0.25c-0.09-0.05-0.16-0.12-0.24-0.18c-0.17-0.13-0.33-0.26-0.51-0.38c-0.08-0.05-0.19-0.08-0.29-0.08
				c-0.14,0-0.28,0.03-0.42,0.03c-0.32,0.02-0.64,0.04-0.96,0.05c-0.25,0-0.5,0.03-0.74,0.1c-0.13,0.04-0.28,0.05-0.41,0.07
				c-0.07,0.01-0.14,0.01-0.21,0.03c-0.31,0.1-0.63,0.08-0.95,0.08c-0.54,0-1.08,0.01-1.62,0c-0.22,0-0.43-0.05-0.65-0.08
				c-0.21-0.04-0.41-0.02-0.61,0.07c-0.08,0.04-0.16,0.07-0.24,0.07c-0.6,0.05-0.99,0.39-1.26,0.89c-0.15,0.29-0.28,0.6-0.36,0.93
				c-0.12,0.46-0.37,0.88-0.72,1.22c-0.37,0.36-0.77,0.66-1.18,0.96c-0.14,0.1-0.26,0.22-0.39,0.33c-0.2,0.15-0.4,0.3-0.61,0.44
				c-0.04,0.03-0.1,0.03-0.16,0.05c-0.14,0.05-0.28,0.09-0.42,0.14c-0.23,0.09-0.46,0.21-0.7,0.25c-0.42,0.08-0.85,0.11-1.29,0.06
				c-0.42-0.04-0.8-0.2-1.19-0.31c-0.56-0.16-0.9-0.55-1.07-1.09c-0.11-0.35-0.18-0.71-0.27-1.07c-0.06-0.23-0.05-0.47,0-0.7
				c0.09-0.41,0.17-0.82,0.27-1.23c0.06-0.23,0.17-0.3,0.32-0.26c0.14,0.03,0.17,0.13,0.17,0.36c-0.01,0.2-0.01,0.41-0.01,0.61
				c0.01,0.35,0.17,0.64,0.32,0.94c0.05,0.09,0.11,0.17,0.16,0.26c0.26,0.46,0.68,0.66,1.17,0.69c0.8,0.05,1.54-0.16,2.24-0.56
				c0.76-0.43,1.45-0.96,2.16-1.44c0.14-0.09,0.26-0.22,0.39-0.34c0.12-0.11,0.15-0.25,0.15-0.41c0-0.19-0.08-0.33-0.26-0.41
				c-0.28-0.13-0.56-0.27-0.82-0.44c-0.36-0.23-0.57-0.56-0.74-0.94c-0.08-0.19-0.06-0.39,0.02-0.55c0.15-0.31,0.25-0.63,0.37-0.95
				c0.1-0.29,0.26-0.53,0.46-0.75c0.5-0.19,0.99-0.2,1.49-0.05c0.15,0.04,0.27,0.12,0.36,0.25c0.05,0.06,0.09,0.12,0.15,0.18
				c0.12,0.13,0.17,0.27,0.16,0.45c-0.01,0.1,0,0.2,0,0.3c0,0.14,0.04,0.26,0.12,0.37c0.14,0.22,0.32,0.33,0.59,0.3
				c0.14-0.02,0.28,0,0.43,0c0.18-0.14,0.36-0.27,0.53-0.42c0.19-0.16,0.23-0.3,0.14-0.54c-0.08-0.21-0.13-0.43-0.13-0.66
				c0-0.04-0.01-0.08,0-0.11c0.09-0.29,0.19-0.58,0.37-0.83c0.02-0.02,0.04-0.06,0.06-0.07c0.23-0.09,0.44-0.24,0.7-0.24
				c0.23,0,0.47,0,0.7,0c0.26,0,0.46,0.13,0.6,0.34c0.06,0.09,0.12,0.18,0.21,0.31c0,0.05-0.01,0.13,0,0.22
				c0.02,0.12,0.05,0.24,0.07,0.36c0.03,0.23,0.07,0.46,0.08,0.69c0.02,0.44,0.24,0.75,0.68,0.85c0.31,0.07,0.61,0.01,0.91-0.01
				c0.22-0.02,0.44-0.03,0.65-0.04c0.02,0,0.03,0,0.05,0c0.49-0.08,0.99-0.15,1.47-0.26c0.19-0.05,0.36-0.2,0.54-0.31
				c0.06-0.04,0.11-0.08,0.15-0.11c0.18,0.01,0.25,0.11,0.26,0.25c0.01,0.15,0.1,0.23,0.22,0.31c0.26,0.17,0.54,0.23,0.84,0.26
				c0.15,0.02,0.31,0.03,0.46,0.04c0.05,0,0.1,0,0.14-0.02c0.25-0.12,0.48-0.27,0.49-0.6c0.01-0.23,0.04-0.45,0.05-0.68
				c0.04-0.61,0.11-1.22,0.1-1.82c-0.02-1.01-0.08-2.03-0.13-3.04c-0.01-0.22-0.05-0.43-0.07-0.65c-0.03-0.29-0.06-0.57-0.1-0.86
				c-0.08-0.47-0.16-0.94-0.25-1.4c-0.03-0.16-0.1-0.32-0.11-0.48c-0.02-0.2,0-0.41,0-0.64c0.14-0.22,0.29-0.47,0.46-0.74
				c0-0.04,0-0.1,0-0.16c0-0.09,0.04-0.15,0.12-0.18c0.09-0.04,0.17-0.01,0.23,0.06c0.04,0.04,0.07,0.09,0.08,0.14
				c0.06,0.2,0.13,0.4,0.17,0.61c0.08,0.42,0.18,0.82,0.41,1.19c0.07,0.11,0.1,0.21,0.03,0.32c-0.08,0.12-0.17,0.24-0.23,0.37
				c-0.04,0.09-0.04,0.2-0.03,0.3c0.06,0.46,0.13,0.93,0.19,1.39c0.03,0.29,0.06,0.59,0.05,0.89c-0.02,0.66,0.07,1.32-0.03,1.99
				c-0.03,0.21,0.01,0.44,0.01,0.65c0,0.19,0,0.37,0,0.56c0,0.19,0.02,0.37,0.03,0.56c0,0.04,0.01,0.08,0,0.12
				c-0.05,0.51,0.05,0.99,0.2,1.47c0.08,0.27,0.21,0.46,0.5,0.53c0.12,0.03,0.23,0.09,0.4,0.16c0.23,0.06,0.43-0.07,0.63-0.26
				c0.28-0.26,0.37-0.57,0.38-0.94c0.01-0.83-0.05-1.65-0.12-2.48c-0.02-0.27-0.02-0.55-0.03-0.82c-0.01-0.21,0.01-0.43-0.04-0.63
				c-0.16-0.66-0.15-1.34-0.21-2.02c-0.06-0.65-0.11-1.31-0.05-1.96c0.03-0.33-0.01-0.67,0.13-0.99c0.03-0.06,0.04-0.12,0.07-0.17
				C108.37,35.35,108.43,35.33,108.64,35.39z M97.68,45c0.11-0.17,0.14-0.35,0.13-0.53c-0.01-0.24-0.14-0.38-0.37-0.45
				c-0.17-0.05-0.34-0.01-0.5,0.03c-0.11,0.03-0.16,0.14-0.17,0.26c0,0.12,0,0.23,0,0.37c0.16,0.2,0.34,0.4,0.62,0.46
				C97.49,45.09,97.58,45.05,97.68,45z M92.46,45.63c0.05,0.04,0.08,0.08,0.12,0.11c0.18,0.11,0.46,0.06,0.57-0.1
				c0.12-0.17,0.07-0.38-0.12-0.54c-0.05-0.04-0.1-0.08-0.15-0.11c-0.2-0.12-0.4-0.03-0.42,0.21
				C92.45,45.34,92.46,45.48,92.46,45.63z"/>
			<path class="st3" d="M123.09,46.61c0.14-0.57,0.28-1.12,0.63-1.65c0.14-0.05,0.33-0.14,0.52-0.19c0.33-0.08,0.63,0.05,0.91,0.22
				c0.29,0.18,0.53,0.41,0.6,0.77c0.02,0.09,0.02,0.18,0.01,0.27c-0.02,0.21,0.08,0.36,0.29,0.41c0.31,0.08,0.62-0.06,0.77-0.35
				c0-0.3-0.02-0.59,0.01-0.88c0.03-0.32,0.08-0.63,0.26-0.91c0.2-0.31,0.39-0.62,0.59-0.93c0.07-0.11,0.17-0.21,0.27-0.29
				c0.15-0.12,0.19-0.26,0.13-0.44c-0.09-0.28-0.17-0.57-0.26-0.87c0.01-0.18,0.16-0.21,0.32-0.24c0.25,0.06,0.49,0.16,0.7,0.32
				c0.14,0.1,0.29,0.18,0.44,0.26c0.39,0.19,0.64,0.51,0.91,0.82c0.02,0.03,0.04,0.07,0.07,0.1c0.35,0.33,0.57,0.73,0.75,1.17
				c0.11,0.26,0.22,0.52,0.22,0.8c0,0.34,0,0.67-0.01,1.01c0,0.07-0.02,0.16-0.06,0.22c-0.14,0.24-0.3,0.47-0.45,0.7
				c-0.16,0.25-0.4,0.34-0.67,0.35c-0.46,0.02-0.92,0.02-1.38,0.01c-0.41-0.01-0.79,0.1-1.13,0.32c-0.17,0.11-0.35,0.16-0.55,0.18
				c-0.24,0.02-0.48,0.04-0.72,0.05c-0.11,0.01-0.23-0.01-0.34-0.03c-0.18,0.02-0.22,0.19-0.25,0.32c-0.08,0.39-0.27,0.74-0.42,1.11
				c-0.04,0.09-0.08,0.17-0.11,0.26c-0.09,0.3-0.31,0.48-0.57,0.61c-0.27,0.14-0.55,0.26-0.82,0.41c-0.71,0.39-1.48,0.63-2.23,0.89
				c-0.14,0.05-0.29,0.07-0.43,0.1c-0.34,0.08-0.68,0.18-1.02,0.24c-0.17,0.03-0.34,0.03-0.51,0.01c-0.31-0.04-0.62-0.1-0.92-0.16
				c-0.43-0.08-0.84-0.22-1.17-0.55c-0.17-0.17-0.36-0.32-0.53-0.48c-0.07-0.57-0.17-1.13-0.15-1.69c0.09-0.1,0.18-0.12,0.31-0.05
				c0.03,0.09,0.08,0.18,0.1,0.27c0.08,0.29,0.28,0.45,0.55,0.53c0.67,0.18,1.35,0.31,2.05,0.29c0.39-0.01,0.77-0.07,1.15-0.18
				c0.66-0.2,1.34-0.37,2-0.55c0.1-0.03,0.19-0.07,0.28-0.11c0.36-0.13,0.73-0.27,1.09-0.4c0.16-0.05,0.26-0.12,0.37-0.27
				c-0.01-0.2-0.14-0.31-0.31-0.4c-0.33-0.18-0.64-0.37-0.91-0.64c-0.19-0.19-0.31-0.4-0.35-0.67
				C123.11,46.68,123.1,46.64,123.09,46.61z M128.55,45.99c0.13-0.18,0.15-0.36,0.17-0.55c0.03-0.2-0.05-0.36-0.21-0.42
				c-0.17-0.07-0.35,0-0.46,0.18c-0.11,0.17-0.13,0.37-0.14,0.56c-0.01,0.22,0.23,0.38,0.44,0.32
				C128.42,46.05,128.49,46.02,128.55,45.99z M129.5,44.9c-0.04,0.29,0.08,0.54,0.21,0.78c0.36,0.15,0.51,0.08,0.61-0.25
				c-0.01-0.23-0.14-0.38-0.27-0.52C129.89,44.73,129.71,44.73,129.5,44.9z M124.38,46.1c-0.28,0.09-0.38,0.29-0.29,0.58
				c0.07,0.23,0.33,0.31,0.65,0.21C124.94,46.52,124.81,46.22,124.38,46.1z"/>
			<path class="st3" d="M132.53,51.46c0.12-0.15,0.24-0.3,0.35-0.44c0.34,0.03,0.67,0.05,0.99,0.08c0.05,0,0.09-0.01,0.14-0.02
				c0.4-0.08,0.78-0.25,1.15-0.42c0.66-0.31,1.23-0.76,1.83-1.17c0.37-0.25,0.65-0.61,0.96-0.92c0.1-0.1,0.2-0.2,0.3-0.29
				c0.19-0.19,0.38-0.37,0.56-0.57c0.09-0.1,0.16-0.22,0.24-0.34c-0.37-0.84-0.85-1.6-1.28-2.42c0.04-0.41,0.08-0.85,0.12-1.3
				c0.01-0.13,0.06-0.22,0.21-0.26c0.24,0.02,0.45,0.12,0.65,0.27c0.04,0.03,0.07,0.07,0.11,0.08c0.22,0.08,0.26,0.24,0.21,0.45
				c-0.06,0.26,0.02,0.49,0.11,0.73c0.07,0.19,0.14,0.38,0.22,0.57c0.14,0.34,0.32,0.66,0.55,0.95c0.05,0.07,0.11,0.14,0.15,0.21
				c0.22,0.38,0.43,0.76,0.64,1.14c0.04,0.07,0.1,0.14,0.14,0.2c0.21,0.01,0.41,0.1,0.6-0.05c-0.24-0.27-0.28-0.59-0.3-0.91
				c-0.02-0.26-0.01-0.53,0-0.8c0-0.23,0.05-0.45,0.16-0.65c0.22-0.41,0.43-0.81,0.73-1.17c0.11-0.13,0.25-0.24,0.39-0.32
				c0.45-0.26,0.95-0.42,1.46-0.5c0.61-0.1,1.2-0.02,1.7,0.39c0.19,0.15,0.39,0.28,0.58,0.42c0.03,0.08,0.06,0.15,0.09,0.24
				c-0.28,0.3-0.63,0.4-1.02,0.37c-0.21-0.02-0.41-0.08-0.62-0.11c-0.29-0.05-0.56,0.02-0.82,0.12c-0.25,0.1-0.44,0.27-0.6,0.48
				c-0.07,0.09-0.12,0.22-0.15,0.34c-0.12,0.49-0.05,0.98,0.14,1.44c0.11,0.27,0.35,0.44,0.6,0.57c0.19,0.1,0.39,0.15,0.61,0.13
				c0.33-0.03,0.65-0.06,0.98-0.1c0.08-0.01,0.15-0.04,0.19-0.05c0.14,0,0.25,0,0.36,0c0.27,0.01,0.41,0.25,0.28,0.49
				c-0.08,0.15-0.19,0.3-0.3,0.43c-0.23,0.28-0.43,0.6-0.76,0.78c-0.24,0.14-0.49,0.26-0.74,0.39c-0.17,0.09-0.35,0.16-0.53,0.23
				c-0.13,0.05-0.27,0.1-0.4,0.11c-0.4,0.03-0.79,0.03-1.19,0.05c-0.4,0.01-0.78-0.06-1.15-0.24c-0.49-0.25-0.88-0.6-1.22-1.02
				c-0.02-0.03-0.03-0.07-0.06-0.11c-0.08-0.01-0.16-0.03-0.25-0.04c-0.05,0.05-0.09,0.08-0.13,0.13c-0.29,0.33-0.56,0.68-0.86,0.99
				c-0.31,0.31-0.66,0.57-0.97,0.88c-0.46,0.46-1.01,0.75-1.59,1.01c-0.27,0.12-0.55,0.23-0.82,0.34c-0.39,0.16-0.81,0.22-1.22,0.16
				c-0.32-0.05-0.63-0.17-0.94-0.26c-0.05-0.02-0.12-0.07-0.14-0.12c-0.09-0.19-0.23-0.33-0.37-0.47
				C132.56,51.54,132.55,51.51,132.53,51.46z"/>
			<path class="st3" d="M132.24,45.7c0.01-0.08,0.01-0.17,0.03-0.25c0.1-0.44,0.21-0.89,0.62-1.16c0.32-0.21,0.68-0.33,1.05-0.34
				c0.52-0.02,0.93,0.29,1.12,0.78c0.12,0.31,0.31,0.4,0.62,0.32c0.13-0.11,0.16-0.26,0.16-0.42c0-0.26,0-0.52,0-0.77
				c0-0.19,0.03-0.39,0.02-0.58c-0.01-0.27-0.01-0.55-0.05-0.82c-0.1-0.67-0.2-1.34-0.32-2.01c-0.17-1-0.36-2-0.54-2.99
				c-0.05-0.3-0.1-0.6-0.15-0.91c0.13-0.42,0.26-0.84,0.4-1.26c0.06-0.18,0.1-0.2,0.31-0.17c0.4,0.8,0.8,1.61,1.21,2.43
				c-0.03,0.07-0.04,0.14-0.08,0.21c-0.11,0.17-0.21,0.34-0.34,0.51c-0.13,0.17-0.14,0.36-0.12,0.55c0.03,0.26,0.07,0.53,0.1,0.79
				c0.06,0.49,0.12,0.97,0.18,1.46c0.09,0.74,0.18,1.47,0.33,2.2c0.07,0.37,0.1,0.74,0.13,1.11c0.03,0.27,0.05,0.54,0.04,0.82
				c0,0.23-0.02,0.47-0.07,0.7c-0.13,0.56-0.43,1.02-0.95,1.3c-0.16,0.09-0.35,0.12-0.52,0.18c-0.11,0.04-0.23,0.06-0.34,0.1
				c-0.06,0.02-0.12,0.06-0.15,0.11c-0.09,0.19-0.25,0.37-0.18,0.58c-0.03,0.12-0.07,0.21-0.08,0.31c-0.05,0.32-0.26,0.54-0.47,0.76
				c-0.05,0.05-0.1,0.1-0.15,0.14c-0.75,0.59-1.54,1.12-2.35,1.63c-0.09,0.06-0.2,0.1-0.3,0.12c-0.43,0.06-0.83,0.21-1.24,0.32
				c-0.37,0.09-0.74,0.19-1.11,0.27c-0.08,0.02-0.17,0.03-0.25,0.01c-0.5-0.1-1.01-0.19-1.51-0.33c-0.27-0.07-0.51-0.22-0.77-0.35
				c-0.05-0.03-0.1-0.08-0.13-0.13c-0.22-0.35-0.43-0.7-0.65-1.05c0.05-0.08,0.11-0.18,0.19-0.31c0.21-0.12,0.46-0.08,0.67,0.06
				c0.26,0.18,0.55,0.26,0.84,0.36c0.15,0.05,0.34,0.04,0.51,0.02c0.29-0.03,0.57-0.07,0.85-0.11c0.13-0.02,0.27-0.02,0.39-0.05
				c0.33-0.08,0.66-0.19,0.99-0.26c0.35-0.07,0.66-0.23,0.98-0.37c0.41-0.18,0.82-0.34,1.22-0.53c0.29-0.13,0.57-0.29,0.84-0.45
				c0.32-0.2,0.32-0.52-0.01-0.7c-0.36-0.2-0.59-0.53-0.85-0.82c-0.15-0.17-0.19-0.4-0.14-0.64c0.02-0.1,0-0.21,0-0.32
				C132.25,45.72,132.24,45.71,132.24,45.7z M133.88,45.05c-0.34,0-0.53,0.22-0.43,0.54c0.03,0.11,0.1,0.24,0.19,0.31
				c0.26,0.2,0.44,0.16,0.59-0.08c0.08-0.13,0.09-0.26,0.07-0.4C134.26,45.17,134.13,45.05,133.88,45.05z"/>
			<path class="st3" d="M118.66,45.62c0.01-0.16,0.01-0.3-0.07-0.45c-0.06-0.11-0.07-0.25-0.07-0.38c-0.01-0.15,0.01-0.3,0.02-0.44
				c0.01-0.49,0.11-0.96,0.38-1.38c0.3-0.47,0.73-0.76,1.31-0.76c0.24,0,0.48,0.09,0.69,0.21c0.17,0.09,0.3,0.24,0.5,0.28
				c0.03,0.01,0.05,0.03,0.08,0.05c0.28,0.28,0.58,0.55,0.79,0.89c0.08,0.13,0.17,0.26,0.25,0.39c0.13,0.19,0.19,0.4,0.25,0.63
				c0.09,0.36,0.02,0.71,0,1.07c-0.01,0.11-0.05,0.21-0.09,0.31c-0.13,0.34-0.18,0.72-0.39,1.04c-0.13,0.2-0.3,0.37-0.49,0.49
				c-0.13,0.07-0.29,0.1-0.45,0.1c-0.77,0.01-1.53,0.01-2.3,0c-0.13,0-0.26-0.03-0.39-0.04c-0.33-0.01-0.65,0.02-0.96,0.15
				c-0.04,0.01-0.07,0.03-0.11,0.03c-0.62,0.05-1.16,0.36-1.71,0.62c-0.23,0.11-0.41,0.31-0.61,0.46c-0.38,0.28-0.72,0.6-0.99,0.99
				c-0.02,0.03-0.04,0.05-0.06,0.07c-0.34,0.36-0.68,0.71-1.01,1.07c-0.24,0.26-0.55,0.42-0.85,0.6c-0.16,0.1-0.32,0.2-0.46,0.32
				c-0.28,0.23-0.6,0.36-0.95,0.4c-0.17,0.02-0.37,0.02-0.53-0.03c-0.36-0.11-0.74-0.21-1.07-0.39c-0.35-0.19-0.67-0.46-0.87-0.83
				c-0.04-0.07-0.07-0.15-0.06-0.22c0.04-0.4,0.24-0.73,0.45-1.09c0.08,0.04,0.16,0.06,0.21,0.12c0.15,0.17,0.33,0.29,0.52,0.39
				c0.26,0.13,0.51,0.28,0.78,0.36c0.45,0.13,0.89,0.09,1.27-0.24c0.34-0.3,0.68-0.6,1-0.91c0.24-0.23,0.46-0.48,0.7-0.71
				c0.09-0.09,0.2-0.15,0.31-0.23c0.03-0.05,0.06-0.12,0.12-0.18c0.39-0.39,0.77-0.78,1.17-1.15c0.13-0.13,0.3-0.22,0.47-0.31
				c0.38-0.21,0.77-0.41,1.16-0.6c0.12-0.06,0.27-0.09,0.4-0.13c0.24-0.09,0.48-0.18,0.73-0.26c0.15-0.05,0.29-0.1,0.47-0.08
				C118.35,45.85,118.55,45.79,118.66,45.62z M120.88,43.86c-0.07-0.09-0.13-0.2-0.22-0.27c-0.12-0.09-0.27-0.16-0.43-0.09
				c-0.26,0.1-0.32,0.31-0.17,0.6c0.23,0.11,0.46,0.12,0.68-0.03C120.78,44.01,120.82,43.95,120.88,43.86z"/>
			<path class="st3" d="M86.92,38.19c0.05,0,0.1,0,0.16,0c0.04,0.31,0.07,0.61,0.11,0.91c0.07,0.61,0.23,1.19,0.63,1.68
				c0.14,0.17,0.27,0.34,0.42,0.5c0.06,0.06,0.13,0.11,0.2,0.15c0.37,0.2,0.76,0.32,1.19,0.31c0.76-0.02,1.53-0.01,2.29-0.07
				c0.72-0.05,1.44-0.17,2.14-0.36c0.24-0.06,0.47-0.18,0.7-0.27c0.55-0.23,1.09-0.46,1.64-0.68c0.29-0.11,0.53-0.29,0.74-0.52
				c0.26-0.29,0.15-0.63-0.23-0.7c-0.33-0.07-0.67-0.06-0.99,0.06c-0.04,0.01-0.07,0.02-0.1,0.03c-0.58-0.15-0.78-0.66-0.75-1.09
				c0.02-0.29,0.17-0.57,0.28-0.86c0.02-0.05,0.07-0.08,0.11-0.12c0.38-0.31,0.75-0.63,1.14-0.94c0.32-0.25,0.65-0.48,0.97-0.73
				c0.33-0.25,0.64-0.52,0.97-0.77c0.26-0.2,0.54-0.37,0.89-0.38c0.24-0.01,0.43,0.11,0.63,0.22c0.18,0.1,0.35,0.2,0.52,0.32
				c0.31,0.21,0.48,0.49,0.28,0.87c-0.07,0.14-0.13,0.28-0.21,0.41c-0.1,0.16-0.24,0.26-0.44,0.26c-0.07,0-0.14,0-0.21,0.02
				c-0.13,0.03-0.24-0.01-0.34-0.1c-0.06-0.05-0.11-0.11-0.18-0.15c-0.14-0.09-0.28-0.16-0.46-0.15c-0.14,0.01-0.28,0.01-0.42,0
				c-0.19-0.01-0.35,0.05-0.5,0.16c-0.25,0.19-0.49,0.38-0.74,0.57c-0.09,0.07-0.16,0.15-0.14,0.27c0.03,0.14,0.12,0.23,0.25,0.24
				c0.34,0.03,0.59,0.24,0.82,0.45c0.2,0.18,0.34,0.41,0.31,0.7c0,0.04-0.01,0.08,0,0.12c0.13,0.55-0.09,1.04-0.33,1.49
				c-0.18,0.35-0.42,0.67-0.78,0.88c-0.19,0.11-0.37,0.23-0.57,0.32c-0.14,0.06-0.26,0.17-0.39,0.26c-0.28,0.19-0.58,0.33-0.91,0.42
				c-0.21,0.06-0.42,0.12-0.62,0.21c-0.45,0.2-0.92,0.34-1.4,0.46c-0.31,0.07-0.62,0.18-0.93,0.24c-0.44,0.09-0.88,0.14-1.31,0.22
				c-0.53,0.1-1.07,0.11-1.61,0.11c-0.16,0-0.32,0.04-0.49,0.05c-0.19,0.01-0.39,0.03-0.58,0.02c-0.13-0.01-0.26-0.06-0.37-0.12
				c-0.18-0.1-0.36-0.21-0.53-0.33c-0.16-0.11-0.31-0.22-0.38-0.42c-0.03-0.1-0.14-0.17-0.19-0.26c-0.19-0.38-0.36-0.77-0.34-1.22
				c0.01-0.22-0.05-0.43-0.06-0.65c-0.02-0.36-0.04-0.71-0.04-1.07C86.77,38.85,86.78,38.51,86.92,38.19z"/>
			<path class="st3" d="M120.97,36.48c0.27,0.26,0.55,0.52,0.82,0.79c0.18,0.19,0.15,0.37-0.08,0.49c-0.17,0.09-0.36,0.15-0.54,0.22
				c-0.15,0.05-0.31,0.06-0.41,0.2c-0.03,0.03-0.08,0.05-0.12,0.06c-0.92,0.37-1.83,0.76-2.76,1.09c-0.61,0.22-1.24,0.36-1.86,0.54
				c-0.09,0.02-0.18,0.03-0.28,0.04c-0.58,0.09-1.15,0.2-1.73,0.28c-0.55,0.08-1.1,0.11-1.66,0.07c-0.05,0-0.09-0.01-0.14,0
				c-0.38,0.04-0.7-0.09-1.01-0.29c-0.15-0.1-0.3-0.19-0.44-0.3c-0.29-0.23-0.41-0.55-0.43-0.9c-0.02-0.26-0.01-0.53-0.02-0.8
				c-0.02-0.33,0.15-0.58,0.29-0.85c0.03-0.06,0.12-0.09,0.21-0.15c0.05,0.1,0.1,0.16,0.13,0.24c0.09,0.27,0.24,0.51,0.4,0.74
				c0.22,0.32,0.53,0.46,0.9,0.46c0.68,0,1.36,0,2.03-0.05c0.49-0.04,0.98-0.15,1.48-0.24c0.17-0.03,0.34-0.05,0.51-0.09
				c0.12-0.03,0.23-0.09,0.35-0.13c0.6-0.22,1.2-0.44,1.8-0.66c0.51-0.19,1.02-0.38,1.54-0.56c0.14-0.05,0.3-0.07,0.45-0.1
				c0.11-0.02,0.23-0.05,0.34-0.06C120.81,36.5,120.88,36.49,120.97,36.48z"/>
			<path class="st3" d="M147.45,34.19c0.19-0.03,0.29,0.03,0.34,0.18c0.4,1.03,0.8,2.06,1.2,3.09c0.01,0.01,0,0.03,0,0.06
				c-0.04,0.1-0.1,0.19-0.2,0.28c-0.18,0.16-0.31,0.37-0.48,0.54c-0.2,0.21-0.26,0.44-0.23,0.72c0.03,0.31,0.01,0.62,0.02,0.94
				c0.01,2.12,0.02,4.23,0.04,6.35c0,0.22-0.05,0.42-0.11,0.62c-0.1,0.34-0.21,0.67-0.32,1c-0.02,0.07-0.08,0.12-0.12,0.17
				c-0.17-0.04-0.25-0.13-0.3-0.27c-0.11-0.32-0.22-0.65-0.34-0.97c-0.1-0.26-0.07-0.52-0.05-0.79c0.01-0.08,0.08-0.16,0.12-0.23
				c0-0.44,0.01-0.87,0-1.31c-0.01-0.55-0.02-1.11-0.05-1.66c-0.03-0.63-0.08-1.26-0.12-1.89c-0.04-0.54-0.08-1.09-0.11-1.63
				c-0.06-0.89-0.11-1.78-0.17-2.66c-0.01-0.23-0.03-0.45-0.04-0.68c0-0.07,0.03-0.15,0.06-0.22c0.22-0.48,0.45-0.96,0.68-1.44
				C147.32,34.32,147.4,34.25,147.45,34.19z"/>
			<path class="st3" d="M131.67,42.89c-0.15-2.11-0.57-4.16-0.84-6.25c0.14-0.32,0.28-0.65,0.43-0.98c0.05-0.12,0.13-0.19,0.31-0.13
				c0.34,0.66,0.69,1.33,1.05,2.02c-0.04,0.06-0.07,0.12-0.11,0.18c-0.12,0.14-0.24,0.29-0.36,0.42c-0.1,0.1-0.12,0.22-0.1,0.35
				c0.1,1.1,0.2,2.19,0.3,3.29c0.04,0.45,0.08,0.9,0.1,1.35c0.01,0.14-0.01,0.28-0.04,0.42c-0.06,0.25-0.13,0.49-0.21,0.76
				c-0.08-0.03-0.15-0.05-0.19-0.07c-0.12-0.24-0.23-0.47-0.33-0.69C131.58,43.34,131.56,43.11,131.67,42.89z"/>
			<path class="st3" d="M122.59,37.2c0.14-0.23,0.29-0.46,0.43-0.7c0.07-0.11,0.15-0.16,0.3-0.09c0.25,0.53,0.51,1.07,0.78,1.63
				c-0.14,0.21-0.38,0.32-0.55,0.53c0,0.07-0.01,0.16-0.01,0.25c0.01,1.17,0.02,2.34,0.02,3.51c0,0.13-0.04,0.26-0.08,0.38
				c-0.06,0.17-0.14,0.33-0.2,0.49c-0.12,0.03-0.18-0.02-0.21-0.11c-0.08-0.18-0.16-0.36-0.23-0.54c-0.06-0.17-0.05-0.34,0.06-0.46
				C122.91,40.46,122.68,38.85,122.59,37.2z"/>
			<path class="st3" d="M114.41,37.65c-0.11-0.15-0.15-0.3-0.14-0.41c0.12-0.28,0.34-0.32,0.56-0.38c0.46-0.12,0.91-0.26,1.37-0.4
				c0.19-0.05,0.33-0.16,0.43-0.33c0.1-0.17,0.23-0.33,0.27-0.55c-0.16-0.24-0.23-0.51-0.2-0.8c0.01-0.11,0.05-0.23,0.11-0.32
				c0.19-0.26,0.59-0.39,0.9-0.29c0.17,0.05,0.33,0.13,0.49,0.19c0.34,0.71,0.06,1.31-0.29,1.92
				C116.75,36.73,115.6,37.24,114.41,37.65z M117.52,34.73c-0.11,0-0.21,0.1-0.2,0.21c0.01,0.1,0.1,0.19,0.2,0.19
				c0.11,0,0.21-0.09,0.21-0.2C117.73,34.82,117.63,34.73,117.52,34.73z"/>
			<path class="st3" d="M129.51,35.28c0.11,0.18,0.19,0.32,0.28,0.45c0.13,0.18,0.17,0.39,0.13,0.6c-0.06,0.33-0.09,0.66-0.24,0.97
				c-0.11,0.24-0.25,0.43-0.47,0.57c-0.46,0.29-0.95,0.51-1.51,0.48c-0.08,0-0.16-0.03-0.25-0.05c0.01-0.08,0.02-0.14,0.02-0.17
				c0.17-0.14,0.31-0.26,0.46-0.37c0.07-0.05,0.15-0.08,0.23-0.11c0.11-0.05,0.23-0.08,0.34-0.14c0.13-0.07,0.22-0.17,0.23-0.33
				c-0.04-0.22-0.22-0.23-0.41-0.24c-0.08-0.16-0.17-0.31-0.24-0.48c-0.09-0.21-0.06-0.43-0.01-0.64c0.06-0.27,0.25-0.46,0.44-0.64
				c0.16-0.15,0.38-0.13,0.58-0.08C129.25,35.15,129.39,35.23,129.51,35.28z M128.74,35.88c0.03,0.23,0.1,0.43,0.28,0.56
				c0.14-0.03,0.18-0.12,0.17-0.22c-0.01-0.09-0.03-0.19-0.06-0.27C129.05,35.76,128.94,35.74,128.74,35.88z"/>
			<path class="st3" d="M103.41,38.45c0.22-0.08,0.27-0.07,0.37,0.09c0.18,0.29,0.23,0.61,0.26,0.94c0.01,0.12,0,0.23,0,0.35
				c-0.01,0.5-0.35,0.84-0.85,0.82c-0.47-0.02-0.93-0.1-1.37-0.24c-0.06-0.02-0.12-0.06-0.15-0.1c-0.14-0.23-0.28-0.47-0.34-0.74
				c-0.06-0.26,0.01-0.5,0.14-0.72c0.1-0.17,0.22-0.32,0.33-0.48c0.05-0.07,0.1-0.12,0.21-0.07c-0.02,0.14-0.02,0.28-0.05,0.42
				c-0.07,0.28-0.11,0.55,0.01,0.85c0.05,0.02,0.12,0.05,0.19,0.06c0.19,0.05,0.3-0.04,0.31-0.24c0-0.12-0.01-0.23-0.01-0.35
				c0-0.14,0.07-0.25,0.17-0.34c0.11-0.1,0.24-0.09,0.32,0.03c0.06,0.09,0.09,0.2,0.11,0.3c0.01,0.11-0.01,0.23-0.02,0.35
				c-0.01,0.09-0.02,0.17-0.01,0.26c0.02,0.14,0.12,0.23,0.26,0.22c0.13,0,0.23-0.09,0.24-0.24c0.01-0.3,0.04-0.59-0.05-0.88
				C103.44,38.65,103.43,38.56,103.41,38.45z"/>
			<path class="st3" d="M145.77,50.38c1.22-0.78,2.41-1.54,3.63-2.32c0.15,0.14,0.3,0.28,0.45,0.42c-0.05,0.06-0.08,0.1-0.12,0.13
				c-1.05,0.77-2.1,1.54-3.16,2.3c-0.09,0.07-0.21,0.11-0.31,0.16c-0.17,0.08-0.33,0.02-0.46-0.08c-0.06-0.04-0.09-0.15-0.09-0.22
				C145.71,50.65,145.75,50.52,145.77,50.38z"/>
			<path class="st3" d="M125.31,33.34c0.15,0.15,0.29,0.27,0.43,0.41c-0.05,0.05-0.09,0.09-0.13,0.12
				c-1.04,0.76-2.08,1.52-3.12,2.28c-0.08,0.06-0.17,0.1-0.27,0.15c-0.22,0.11-0.4,0.03-0.58-0.1c-0.05-0.2-0.02-0.37,0.05-0.54
				C122.89,34.88,124.09,34.12,125.31,33.34z"/>
			<path class="st3" d="M105.58,50.54c0.02-0.16,0.04-0.33,0.06-0.49c1.22-0.78,2.42-1.54,3.64-2.32c0.15,0.13,0.28,0.26,0.44,0.41
				c-0.06,0.05-0.1,0.1-0.15,0.13c-1.03,0.75-2.06,1.5-3.08,2.25c-0.08,0.06-0.17,0.11-0.26,0.15
				C105.99,50.78,105.79,50.73,105.58,50.54z"/>
			<path class="st3" d="M111.5,47.07c0.02-0.16,0.04-0.33,0.06-0.49c1.22-0.78,2.42-1.54,3.64-2.32c0.15,0.13,0.28,0.26,0.44,0.41
				c-0.06,0.05-0.1,0.1-0.15,0.13c-1.03,0.75-2.06,1.5-3.08,2.25c-0.08,0.06-0.17,0.11-0.26,0.15
				C111.91,47.31,111.71,47.26,111.5,47.07z"/>
			<path class="st3" d="M103.84,34.98c0.15,0.14,0.29,0.27,0.43,0.41c-0.05,0.05-0.09,0.09-0.13,0.12c-1.03,0.75-2.07,1.51-3.1,2.26
				c-0.08,0.06-0.17,0.11-0.26,0.15c-0.22,0.11-0.42,0.05-0.6-0.09c-0.05-0.19-0.02-0.37,0.05-0.54
				C101.42,36.52,102.61,35.76,103.84,34.98z"/>
			<path class="st3" d="M124.14,42.91c0.02-0.17,0.04-0.34,0.06-0.49c1.22-0.78,2.42-1.54,3.62-2.31c0.19,0.09,0.31,0.25,0.45,0.4
				c-0.05,0.05-0.09,0.09-0.14,0.13c-1.03,0.75-2.06,1.5-3.08,2.25c-0.08,0.06-0.17,0.11-0.26,0.15
				C124.56,43.14,124.36,43.08,124.14,42.91z"/>
			<path class="st3" d="M139.52,51.34c0.15,0.14,0.29,0.27,0.43,0.41c-0.06,0.05-0.1,0.09-0.15,0.13c-1.03,0.75-2.06,1.5-3.08,2.25
				c-0.08,0.06-0.17,0.11-0.26,0.15c-0.22,0.11-0.42,0.06-0.6-0.1c-0.05-0.18-0.02-0.35,0.05-0.53
				C137.09,52.89,138.29,52.12,139.52,51.34z"/>
			<path class="st3" d="M98.57,40.5c0.2,0.22,0.46,0.35,0.71,0.5c0.29-0.2,0.52-0.44,0.72-0.73c0.09,0.04,0.17,0.06,0.23,0.11
				c0.19,0.17,0.38,0.34,0.57,0.52c0.1,0.09,0.13,0.21,0.07,0.34c-0.06,0.14-0.12,0.29-0.19,0.43c-0.12,0.23-0.21,0.27-0.47,0.22
				c-0.06-0.01-0.12-0.02-0.18-0.03c-0.22-0.15-0.43-0.29-0.66-0.45c-0.16,0.02-0.23,0.16-0.31,0.28c-0.13,0.21-0.29,0.38-0.52,0.5
				c-0.31-0.1-0.48-0.36-0.7-0.57c-0.05-0.05-0.06-0.14-0.08-0.19C98.02,41.11,98.29,40.82,98.57,40.5z"/>
			<path class="st3" d="M142.59,38.36c-0.12-0.09-0.23-0.17-0.36-0.26c0.06-0.04,0.1-0.08,0.15-0.1c0.28-0.16,0.55-0.32,0.83-0.48
				c0.04-0.02,0.09-0.05,0.11-0.09c0.1-0.19,0.28-0.31,0.44-0.45c0.06-0.05,0.1-0.11,0.16-0.19c-0.12-0.06-0.21-0.12-0.31-0.17
				c-0.18-0.19-0.15-0.42-0.07-0.65c0.02-0.07,0.09-0.13,0.16-0.16c0.16-0.08,0.32-0.15,0.49-0.22c0.12,0.1,0.24,0.18,0.33,0.29
				c0.08,0.11,0.15,0.24,0.18,0.37c0.09,0.35,0.03,0.71,0,1.07c-0.01,0.16-0.12,0.25-0.25,0.31c-0.17,0.08-0.34,0.15-0.51,0.23
				c-0.32,0.14-0.64,0.28-0.97,0.41C142.85,38.3,142.73,38.32,142.59,38.36z"/>
			<path class="st3" d="M98.59,49.5c-0.17-0.19-0.15-0.42-0.06-0.64c0.03-0.07,0.09-0.13,0.15-0.17c0.16-0.09,0.34-0.15,0.54-0.24
				c0.04,0.06,0.07,0.13,0.12,0.16c0.37,0.23,0.39,0.59,0.39,0.97c0,0.18-0.02,0.36-0.03,0.54c-0.01,0.19-0.1,0.32-0.28,0.4
				c-0.27,0.11-0.53,0.22-0.8,0.33c-0.19,0.08-0.38,0.18-0.58,0.26c-0.14,0.06-0.28,0.1-0.43,0.15c-0.12-0.08-0.24-0.16-0.4-0.27
				c0.21-0.12,0.39-0.22,0.57-0.32c0.17-0.1,0.34-0.21,0.5-0.35c0.21-0.2,0.42-0.4,0.65-0.63C98.79,49.61,98.69,49.56,98.59,49.5z"
				/>
			<path class="st3" d="M89.59,45.03c0.08,0.15,0.16,0.3,0.23,0.44c0.04,0.08,0.08,0.16,0.08,0.24c0.01,0.37,0,0.73,0,1.1
				c0,0.11-0.04,0.22-0.04,0.32c0,0.27-0.09,0.5-0.22,0.73c-0.12,0.21-0.23,0.43-0.34,0.64c-0.01,0.03-0.03,0.06-0.04,0.08
				c-0.23,0.41-0.21,0.45-0.73,0.24c-0.02-0.05-0.05-0.1-0.09-0.18c0.04-0.08,0.08-0.17,0.13-0.25c0.31-0.49,0.61-0.98,0.61-1.58
				c0-0.52,0-1.05,0-1.6C89.31,45.02,89.34,45.01,89.59,45.03z"/>
			<path class="st3" d="M119.97,39.45c0.05,0.04,0.13,0.09,0.24,0.17c0.16,0.02,0.33,0.11,0.46,0.28c0.05,0.06,0.13,0.1,0.21,0.14
				c0.21,0.11,0.27,0.24,0.19,0.46c-0.08,0.2-0.15,0.41-0.23,0.61c-0.02,0.07-0.05,0.13-0.08,0.19c-0.1,0.17-0.22,0.21-0.39,0.12
				c-0.29-0.16-0.59-0.32-0.87-0.5c-0.2-0.12-0.24-0.24-0.17-0.46c0.08-0.23,0.2-0.45,0.3-0.68c0.03-0.06,0.06-0.11,0.09-0.16
				C119.75,39.52,119.82,39.46,119.97,39.45z"/>
			<path class="st3" d="M113.81,41.39c-0.25,0.38-0.43,0.75-0.5,1.15c-0.1,0.04-0.17,0.07-0.26,0.11c-0.43-0.19-0.87-0.38-1.32-0.58
				c0.02-0.07,0.04-0.13,0.06-0.2c0.07-0.22,0.15-0.44,0.23-0.66c0.05-0.15,0.11-0.29,0.28-0.36
				C112.78,41.02,113.27,41.2,113.81,41.39z"/>
			<path class="st3" d="M117.95,40.19c0.24,0.1,0.5,0.2,0.75,0.31c0.11,0.05,0.23,0.09,0.35,0.13c0.17,0.06,0.22,0.19,0.13,0.35
				c-0.08,0.14-0.17,0.28-0.25,0.42c-0.08,0.15-0.16,0.31-0.26,0.51c-0.19,0.03-0.41,0.01-0.64-0.06c-0.13-0.04-0.25-0.06-0.38-0.08
				c-0.27-0.03-0.35-0.15-0.28-0.41c0.03-0.11,0.05-0.23,0.07-0.34c0.02-0.15,0.07-0.28,0.15-0.41c0.04-0.06,0.07-0.12,0.08-0.19
				C117.72,40.3,117.78,40.23,117.95,40.19z"/>
			<path class="st3" d="M101.13,42.34c0-0.18,0.07-0.26,0.18-0.32c0.24-0.12,0.49-0.24,0.74-0.35c0.14-0.06,0.28-0.03,0.39,0.07
				c0.09,0.08,0.17,0.18,0.25,0.28c0.09,0.11,0.18,0.21,0.27,0.32c0.14,0.16,0.13,0.31-0.04,0.44c-0.11,0.08-0.23,0.16-0.34,0.24
				c-0.12,0.09-0.24,0.19-0.36,0.29c-0.22,0.19-0.37,0.18-0.53-0.05c-0.16-0.23-0.31-0.46-0.46-0.7
				C101.18,42.48,101.15,42.39,101.13,42.34z"/>
			<path class="st3" d="M103.32,41.45c0.02-0.06,0.02-0.12,0.05-0.16c0.04-0.05,0.1-0.13,0.15-0.13c0.21,0,0.42-0.07,0.62,0.03
				c0.05,0.02,0.1,0.05,0.13,0.09c0.2,0.24,0.39,0.49,0.57,0.72c-0.02,0.08-0.02,0.14-0.05,0.18c-0.21,0.28-0.39,0.59-0.76,0.7
				c-0.2,0.06-0.29,0.03-0.42-0.15c-0.14-0.2-0.29-0.41-0.43-0.61c-0.19-0.27-0.19-0.37,0.05-0.6
				C103.27,41.5,103.3,41.48,103.32,41.45z"/>
			<path class="st3" d="M91.65,36.42c0.03-0.1,0.05-0.2,0.08-0.32c0.11,0,0.21,0,0.31,0c0.09,0,0.19,0,0.28-0.02
				c0.15-0.03,0.18-0.08,0.19-0.29c-0.06-0.05-0.14-0.1-0.22-0.16c-0.13-0.23-0.09-0.43,0.11-0.59c0.21-0.16,0.45-0.14,0.64,0.03
				c0.24,0.21,0.37,0.47,0.51,0.74c-0.03,0.08-0.05,0.14-0.08,0.21c0,0.01,0,0.03,0,0.04c0.05,0.32-0.15,0.62-0.47,0.66
				c-0.33,0.03-0.66,0.03-0.97-0.07C91.89,36.61,91.78,36.5,91.65,36.42z"/>
		</g>
	</g>
	<g>
		<path class="st3" d="M87.93,69.3v-3.09h1.09c1.1,0,1.65,0.5,1.65,1.51c0,0.48-0.15,0.86-0.45,1.15c-0.3,0.29-0.7,0.43-1.2,0.43
			H87.93z M88.62,66.78v1.96h0.34c0.3,0,0.54-0.09,0.71-0.27s0.26-0.43,0.26-0.74c0-0.29-0.09-0.53-0.26-0.69
			c-0.17-0.17-0.41-0.25-0.72-0.25H88.62z"/>
		<path class="st3" d="M92.13,66.21v0.54h-0.26v2.01h0.26v0.54h-1.21v-0.54h0.26v-2.01h-0.26v-0.54H92.13z"/>
		<path class="st3" d="M92.44,69.18v-0.69c0.12,0.1,0.26,0.18,0.41,0.24c0.15,0.05,0.29,0.08,0.44,0.08c0.09,0,0.16-0.01,0.23-0.02
			c0.07-0.02,0.12-0.04,0.16-0.07c0.04-0.03,0.08-0.06,0.1-0.1c0.02-0.04,0.03-0.08,0.03-0.12c0-0.06-0.02-0.11-0.05-0.16
			c-0.03-0.05-0.08-0.09-0.14-0.13c-0.06-0.04-0.13-0.08-0.21-0.12c-0.08-0.04-0.17-0.08-0.26-0.11c-0.24-0.1-0.42-0.22-0.54-0.37
			s-0.18-0.32-0.18-0.53c0-0.16,0.03-0.3,0.1-0.41s0.15-0.21,0.26-0.29c0.11-0.07,0.24-0.13,0.39-0.16c0.15-0.04,0.3-0.05,0.47-0.05
			c0.16,0,0.3,0.01,0.43,0.03c0.12,0.02,0.24,0.05,0.34,0.09v0.64c-0.05-0.04-0.11-0.07-0.17-0.09s-0.12-0.05-0.19-0.07
			s-0.13-0.03-0.19-0.04s-0.12-0.01-0.18-0.01c-0.08,0-0.15,0.01-0.22,0.02c-0.06,0.02-0.12,0.04-0.16,0.06s-0.08,0.06-0.1,0.1
			c-0.02,0.04-0.04,0.08-0.04,0.13c0,0.05,0.01,0.1,0.04,0.14c0.03,0.04,0.07,0.08,0.12,0.12c0.05,0.04,0.11,0.07,0.18,0.11
			c0.07,0.04,0.15,0.07,0.24,0.11c0.12,0.05,0.23,0.11,0.33,0.16c0.1,0.06,0.18,0.12,0.25,0.2s0.12,0.16,0.16,0.25
			c0.04,0.09,0.06,0.2,0.06,0.33c0,0.17-0.03,0.32-0.1,0.43c-0.07,0.12-0.15,0.21-0.27,0.28c-0.11,0.07-0.24,0.12-0.39,0.16
			c-0.15,0.03-0.31,0.05-0.47,0.05c-0.17,0-0.33-0.01-0.48-0.04C92.68,69.28,92.55,69.24,92.44,69.18z"/>
		<path class="st3" d="M97.22,66.78h-0.88v2.52h-0.7v-2.52h-0.88v-0.57h2.45V66.78z"/>
		<path class="st3" d="M100.22,69.3h-0.8l-0.48-0.79c-0.04-0.06-0.07-0.11-0.1-0.16c-0.03-0.05-0.07-0.09-0.1-0.12
			c-0.03-0.03-0.07-0.06-0.11-0.08s-0.08-0.03-0.12-0.03h-0.19v1.18h-0.7v-3.09h1.1c0.75,0,1.12,0.28,1.12,0.84
			c0,0.11-0.02,0.21-0.05,0.3c-0.03,0.09-0.08,0.17-0.14,0.25c-0.06,0.07-0.13,0.14-0.22,0.19c-0.09,0.05-0.18,0.09-0.29,0.12v0.01
			c0.05,0.01,0.09,0.04,0.13,0.07c0.04,0.03,0.08,0.07,0.12,0.11c0.04,0.04,0.08,0.09,0.12,0.14c0.04,0.05,0.07,0.1,0.1,0.15
			L100.22,69.3z M98.33,66.73v0.86h0.3c0.15,0,0.27-0.04,0.36-0.13c0.09-0.09,0.14-0.2,0.14-0.33c0-0.27-0.16-0.4-0.48-0.4H98.33z"
			/>
		<path class="st3" d="M101.47,66.21v0.54h-0.26v2.01h0.26v0.54h-1.21v-0.54h0.26v-2.01h-0.26v-0.54H101.47z"/>
		<path class="st3" d="M104.12,69.19c-0.23,0.11-0.52,0.16-0.88,0.16c-0.47,0-0.85-0.14-1.12-0.42c-0.27-0.28-0.41-0.65-0.41-1.11
			c0-0.49,0.15-0.89,0.46-1.2c0.31-0.31,0.7-0.46,1.19-0.46c0.3,0,0.56,0.04,0.76,0.11v0.67c-0.21-0.12-0.44-0.19-0.71-0.19
			c-0.29,0-0.52,0.09-0.7,0.27c-0.18,0.18-0.27,0.43-0.27,0.74c0,0.3,0.08,0.54,0.25,0.71c0.17,0.18,0.39,0.27,0.68,0.27
			c0.27,0,0.52-0.07,0.75-0.2V69.19z"/>
		<path class="st3" d="M106.83,66.78h-0.88v2.52h-0.7v-2.52h-0.88v-0.57h2.45V66.78z"/>
		<path class="st3" d="M110.68,69.19c-0.23,0.11-0.52,0.16-0.88,0.16c-0.47,0-0.85-0.14-1.12-0.42s-0.41-0.65-0.41-1.11
			c0-0.49,0.15-0.89,0.46-1.2c0.31-0.31,0.7-0.46,1.19-0.46c0.3,0,0.56,0.04,0.76,0.11v0.67c-0.21-0.12-0.44-0.19-0.71-0.19
			c-0.29,0-0.52,0.09-0.7,0.27c-0.18,0.18-0.27,0.43-0.27,0.74c0,0.3,0.08,0.54,0.25,0.71c0.17,0.18,0.39,0.27,0.68,0.27
			c0.27,0,0.52-0.07,0.75-0.2V69.19z"/>
		<path class="st3" d="M112.52,69.36c-0.44,0-0.8-0.14-1.08-0.43s-0.42-0.66-0.42-1.13c0-0.49,0.14-0.88,0.42-1.18
			c0.28-0.3,0.66-0.45,1.12-0.45c0.44,0,0.8,0.14,1.07,0.43c0.27,0.29,0.41,0.67,0.41,1.14c0,0.49-0.14,0.88-0.42,1.17
			C113.34,69.21,112.97,69.36,112.52,69.36z M112.55,66.76c-0.24,0-0.44,0.09-0.58,0.27c-0.14,0.18-0.22,0.43-0.22,0.73
			c0,0.31,0.07,0.55,0.22,0.73c0.14,0.18,0.33,0.27,0.56,0.27c0.24,0,0.43-0.09,0.57-0.26c0.14-0.17,0.21-0.41,0.21-0.72
			c0-0.32-0.07-0.57-0.2-0.75C112.97,66.85,112.79,66.76,112.55,66.76z"/>
		<path class="st3" d="M117.08,67.96c0,0.93-0.43,1.39-1.3,1.39c-0.84,0-1.26-0.45-1.26-1.36v-1.78h0.7V68c0,0.5,0.2,0.75,0.59,0.75
			c0.38,0,0.57-0.24,0.57-0.72v-1.82h0.7V67.96z"/>
		<path class="st3" d="M120.34,69.3h-0.8l-0.48-0.79c-0.04-0.06-0.07-0.11-0.1-0.16c-0.03-0.05-0.07-0.09-0.1-0.12
			s-0.07-0.06-0.11-0.08c-0.04-0.02-0.08-0.03-0.12-0.03h-0.19v1.18h-0.7v-3.09h1.1c0.75,0,1.12,0.28,1.12,0.84
			c0,0.11-0.02,0.21-0.05,0.3c-0.03,0.09-0.08,0.17-0.14,0.25c-0.06,0.07-0.13,0.14-0.22,0.19c-0.09,0.05-0.18,0.09-0.29,0.12v0.01
			c0.05,0.01,0.09,0.04,0.13,0.07c0.04,0.03,0.08,0.07,0.12,0.11c0.04,0.04,0.08,0.09,0.12,0.14c0.04,0.05,0.07,0.1,0.1,0.15
			L120.34,69.3z M118.44,66.73v0.86h0.3c0.15,0,0.27-0.04,0.36-0.13c0.09-0.09,0.14-0.2,0.14-0.33c0-0.27-0.16-0.4-0.48-0.4H118.44z
			"/>
		<path class="st3" d="M122.8,66.78h-0.88v2.52h-0.7v-2.52h-0.88v-0.57h2.45V66.78z"/>
		<path class="st3" d="M125.71,68.08c0,0.41-0.1,0.73-0.29,0.95c-0.19,0.22-0.47,0.33-0.83,0.33c-0.16,0-0.31-0.03-0.45-0.08v-0.65
			c0.12,0.09,0.25,0.14,0.4,0.14c0.32,0,0.48-0.24,0.48-0.71v-1.83h0.69V68.08z"/>
		<path class="st3" d="M129.11,69.3h-0.76l-0.22-0.69h-1.1l-0.22,0.69h-0.75l1.12-3.09h0.82L129.11,69.3z M127.97,68.08l-0.33-1.04
			c-0.02-0.08-0.04-0.17-0.05-0.28h-0.02c-0.01,0.09-0.03,0.18-0.05,0.27l-0.34,1.05H127.97z"/>
		<path class="st3" d="M133.01,69.3h-0.69v-1.85c0-0.2,0.01-0.42,0.03-0.66h-0.02c-0.04,0.19-0.07,0.33-0.1,0.41l-0.72,2.1h-0.57
			l-0.74-2.08c-0.02-0.06-0.05-0.2-0.1-0.43h-0.02c0.02,0.3,0.03,0.57,0.03,0.8v1.71h-0.63v-3.09h1.02l0.63,1.83
			c0.05,0.15,0.09,0.29,0.11,0.44h0.01c0.04-0.17,0.08-0.32,0.12-0.45l0.63-1.83h0.99V69.3z"/>
		<path class="st3" d="M133.57,69.18v-0.69c0.12,0.1,0.26,0.18,0.41,0.24c0.15,0.05,0.29,0.08,0.44,0.08c0.09,0,0.16-0.01,0.23-0.02
			c0.07-0.02,0.12-0.04,0.16-0.07c0.04-0.03,0.08-0.06,0.1-0.1c0.02-0.04,0.03-0.08,0.03-0.12c0-0.06-0.02-0.11-0.05-0.16
			c-0.03-0.05-0.08-0.09-0.14-0.13c-0.06-0.04-0.13-0.08-0.21-0.12s-0.17-0.08-0.26-0.11c-0.24-0.1-0.42-0.22-0.54-0.37
			c-0.12-0.14-0.18-0.32-0.18-0.53c0-0.16,0.03-0.3,0.1-0.41c0.06-0.12,0.15-0.21,0.26-0.29c0.11-0.07,0.24-0.13,0.39-0.16
			s0.3-0.05,0.47-0.05c0.16,0,0.3,0.01,0.43,0.03c0.12,0.02,0.24,0.05,0.34,0.09v0.64c-0.05-0.04-0.11-0.07-0.17-0.09
			c-0.06-0.03-0.12-0.05-0.19-0.07c-0.06-0.02-0.13-0.03-0.19-0.04c-0.06-0.01-0.12-0.01-0.18-0.01c-0.08,0-0.15,0.01-0.22,0.02
			c-0.06,0.02-0.12,0.04-0.16,0.06c-0.04,0.03-0.08,0.06-0.1,0.1s-0.04,0.08-0.04,0.13c0,0.05,0.01,0.1,0.04,0.14
			c0.03,0.04,0.07,0.08,0.12,0.12c0.05,0.04,0.11,0.07,0.18,0.11c0.07,0.04,0.15,0.07,0.24,0.11c0.12,0.05,0.23,0.11,0.33,0.16
			c0.1,0.06,0.18,0.12,0.25,0.2s0.12,0.16,0.16,0.25c0.04,0.09,0.06,0.2,0.06,0.33c0,0.17-0.03,0.32-0.1,0.43
			c-0.07,0.12-0.15,0.21-0.27,0.28s-0.24,0.12-0.39,0.16c-0.15,0.03-0.31,0.05-0.47,0.05c-0.17,0-0.33-0.01-0.48-0.04
			C133.81,69.28,133.68,69.24,133.57,69.18z"/>
		<path class="st3" d="M138.86,69.3h-0.7v-1.26h-1.28v1.26h-0.7v-3.09h0.7v1.23h1.28v-1.23h0.7V69.3z"/>
		<path class="st3" d="M140.87,69.36c-0.44,0-0.8-0.14-1.08-0.43c-0.28-0.29-0.42-0.66-0.42-1.13c0-0.49,0.14-0.88,0.42-1.18
			c0.28-0.3,0.66-0.45,1.12-0.45c0.44,0,0.8,0.14,1.07,0.43c0.27,0.29,0.41,0.67,0.41,1.14c0,0.49-0.14,0.88-0.42,1.17
			S141.32,69.36,140.87,69.36z M140.9,66.76c-0.24,0-0.44,0.09-0.58,0.27c-0.14,0.18-0.22,0.43-0.22,0.73
			c0,0.31,0.07,0.55,0.22,0.73c0.14,0.18,0.33,0.27,0.56,0.27c0.24,0,0.43-0.09,0.57-0.26c0.14-0.17,0.21-0.41,0.21-0.72
			c0-0.32-0.07-0.57-0.2-0.75C141.32,66.85,141.13,66.76,140.9,66.76z"/>
		<path class="st3" d="M145.5,69.3h-0.8l-0.48-0.79c-0.04-0.06-0.07-0.11-0.1-0.16c-0.03-0.05-0.07-0.09-0.1-0.12
			s-0.07-0.06-0.11-0.08s-0.08-0.03-0.12-0.03h-0.19v1.18h-0.7v-3.09h1.1c0.75,0,1.12,0.28,1.12,0.84c0,0.11-0.02,0.21-0.05,0.3
			s-0.08,0.17-0.14,0.25c-0.06,0.07-0.13,0.14-0.22,0.19c-0.09,0.05-0.18,0.09-0.29,0.12v0.01c0.05,0.01,0.09,0.04,0.13,0.07
			c0.04,0.03,0.08,0.07,0.12,0.11c0.04,0.04,0.08,0.09,0.12,0.14c0.04,0.05,0.07,0.1,0.1,0.15L145.5,69.3z M143.6,66.73v0.86h0.3
			c0.15,0,0.27-0.04,0.36-0.13c0.09-0.09,0.14-0.2,0.14-0.33c0-0.27-0.16-0.4-0.48-0.4H143.6z"/>
		<path class="st3" d="M147.09,69.36c-0.44,0-0.8-0.14-1.08-0.43c-0.28-0.29-0.42-0.66-0.42-1.13c0-0.49,0.14-0.88,0.42-1.18
			c0.28-0.3,0.66-0.45,1.12-0.45c0.44,0,0.8,0.14,1.07,0.43c0.27,0.29,0.41,0.67,0.41,1.14c0,0.49-0.14,0.88-0.42,1.17
			C147.91,69.21,147.54,69.36,147.09,69.36z M147.12,66.76c-0.24,0-0.44,0.09-0.58,0.27c-0.14,0.18-0.22,0.43-0.22,0.73
			c0,0.31,0.07,0.55,0.22,0.73c0.14,0.18,0.33,0.27,0.56,0.27c0.24,0,0.43-0.09,0.57-0.26c0.14-0.17,0.21-0.41,0.21-0.72
			c0-0.32-0.07-0.57-0.2-0.75C147.54,66.85,147.36,66.76,147.12,66.76z"/>
	</g>
</g>
</svg>
